<?xml version="1.0" encoding="utf-8"?>
<!-- Generator: Adobe Illustrator 24.2.3, SVG Export Plug-In . SVG Version: 6.00 Build 0)  -->
<svg version="1.1" id="Layer_1" xmlns="http://www.w3.org/2000/svg" xmlns:xlink="http://www.w3.org/1999/xlink" x="0px" y="0px"
	 viewBox="0 0 54.01 47.06" style="enable-background:new 0 0 54.01 47.06;" xml:space="preserve">
<style type="text/css">
	.st0{fill:#FFFFFF;}
</style>
<g id="XMLID_69_">
	<path id="XMLID_463_" class="st0" d="M38.07,20.39c-1.92,0-3.83-0.04-5.75,0.01c-1.08,0.03-1.94-0.79-1.92-1.94
		c0.04-3.83,0.04-7.66,0-11.49c-0.01-1.04,0.73-1.94,1.94-1.93C36.17,5.08,40,5.06,43.83,5.06c1.23,0,1.91,0.69,1.91,1.93
		c0,3.83-0.02,7.66,0.01,11.49c0.01,1.17-0.86,1.95-1.94,1.92C41.9,20.35,39.99,20.39,38.07,20.39z"/>
	<path id="XMLID_462_" class="st0" d="M15.94,27.2c1.92,0,3.83,0.03,5.75-0.01c1.15-0.03,1.94,0.84,1.93,1.93
		c-0.04,3.83-0.04,7.66,0,11.49c0.01,1.05-0.74,1.94-1.93,1.93c-3.83-0.03-7.66-0.01-11.49-0.01c-1.23,0-1.92-0.69-1.92-1.92
		c0-3.83,0.02-7.66-0.01-11.49c-0.01-1.15,0.83-1.96,1.94-1.93C12.11,27.24,14.02,27.2,15.94,27.2z"/>
	<path id="XMLID_461_" class="st0" d="M30.42,34.83c0-1.92,0-3.83,0-5.75c0-1.18,0.69-1.87,1.88-1.88c3.86,0,7.71,0,11.57,0
		c1.18,0,1.88,0.7,1.88,1.88c0,3.86,0,7.71,0,11.57c0,1.18-0.7,1.88-1.88,1.88c-3.86,0-7.71,0-11.57,0c-1.18,0-1.87-0.7-1.87-1.88
		C30.41,38.71,30.42,36.77,30.42,34.83z"/>
	<path id="XMLID_458_" class="st0" d="M23.6,12.74c0,1.92-0.04,3.83,0.01,5.74c0.03,1.09-0.8,1.94-1.94,1.92
		c-3.82-0.04-7.63-0.04-11.45,0c-1.09,0.01-1.98-0.73-1.97-1.98c0.03-3.8,0.01-7.61,0.01-11.41c0-1.28,0.68-1.95,1.97-1.95
		c3.8,0,7.61,0.02,11.41-0.01c1.24-0.01,1.99,0.89,1.96,1.94C23.56,8.9,23.6,10.82,23.6,12.74z M12.07,8.86c0,2.6,0,5.15,0,7.72
		c2.59,0,5.16,0,7.73,0c0-2.59,0-5.14,0-7.72C17.21,8.86,14.66,8.86,12.07,8.86z"/>
</g>
</svg>
