<?xml version="1.0" encoding="utf-8"?>
<!-- Generator: Adobe Illustrator 24.2.3, SVG Export Plug-In . SVG Version: 6.00 Build 0)  -->
<svg version="1.1" id="Layer_1" xmlns="http://www.w3.org/2000/svg" xmlns:xlink="http://www.w3.org/1999/xlink" x="0px" y="0px"
	 viewBox="0 0 54.01 47.06" style="enable-background:new 0 0 54.01 47.06;" xml:space="preserve">
<style type="text/css">
	.st0{fill:#FFFFFF;}
</style>
<g id="XMLID_68_">
	<path id="XMLID_489_" class="st0" d="M31.23,8.53c0.48-0.29,0.92-0.54,1.36-0.81c0.27-0.17,0.53-0.17,0.81,0
		c1.94,1.17,3.88,2.33,5.82,3.49c0.27,0.16,0.37,0.38,0.37,0.68c-0.01,1.75,0,3.49-0.01,5.24c0,0.22,0.07,0.34,0.26,0.45
		c1.76,1.05,3.52,2.11,5.28,3.16c0.33,0.2,0.47,0.45,0.47,0.83c-0.01,1.86-0.01,3.73,0,5.59c0,0.37-0.13,0.62-0.45,0.81
		c-1.9,1.13-3.8,2.26-5.69,3.41c-0.34,0.2-0.61,0.2-0.94,0c-0.91-0.57-1.84-1.11-2.76-1.66c-0.1-0.06-0.2-0.11-0.33-0.19
		c0,2.71,0,5.38,0,8.07c0.05,0.02,0.13,0.06,0.2,0.09c1.12,0.44,1.72,1.48,1.54,2.67c-0.16,1.05-1.12,1.9-2.24,1.98
		c-1.11,0.08-2.19-0.73-2.46-1.83c-0.28-1.14,0.3-2.32,1.39-2.77c0.26-0.11,0.34-0.23,0.33-0.51c-0.01-2.7-0.01-5.41,0-8.11
		c0-0.25-0.04-0.42-0.29-0.53c-0.32-0.15-0.61-0.46-0.92-0.47c-0.29,0-0.57,0.35-0.88,0.47c-0.75,0.29-0.91,0.79-0.9,1.57
		c0.05,3.03,0.02,6.07,0.02,9.1c0,1.45-0.93,2.65-2.32,2.98c-0.26,0.06-0.53,0.09-0.79,0.09c-5.53,0.01-11.05,0.01-16.58,0
		c-1.79,0-3.1-1.32-3.11-3.11c0-10.3,0-20.59,0-30.89c0-1.87,1.3-3.17,3.18-3.17c5.46,0,10.92,0,16.39,0c1.92,0,3.17,1.22,3.23,3.15
		C31.21,8.38,31.22,8.43,31.23,8.53z M27.57,31.28c-0.49,0.51-0.89,0.19-1.29-0.05c-1.8-1.08-3.61-2.17-5.42-3.25
		c-0.32-0.19-0.46-0.42-0.45-0.8c0.01-1.86,0.02-3.73,0-5.59c0-0.41,0.14-0.67,0.49-0.87c1.75-1.03,3.49-2.08,5.22-3.13
		c0.11-0.06,0.25-0.18,0.25-0.28c0.02-0.62,0.01-1.25,0.01-1.91c-0.14,0-0.26,0-0.37,0c-2.58,0-5.15,0-7.73-0.01
		c-0.24,0-0.36,0.05-0.46,0.3c-0.44,1.1-1.56,1.68-2.71,1.44c-1.05-0.22-1.81-1.11-1.9-2.21c-0.08-1.03,0.6-2.04,1.61-2.4
		c1.01-0.36,2.13-0.01,2.74,0.88c0.16,0.24,0.28,0.52,0.41,0.77c2.8,0,5.59,0,8.41,0c0-0.55,0-1.08,0-1.61
		c0-1.27-0.07-1.05,0.95-1.67c0.05-0.03,0.1-0.05,0.13-0.08c0.05-0.05,0.11-0.12,0.11-0.17c0.01-0.59,0-1.19,0-1.78
		c-5.2,0-10.36,0-15.51,0c0,8.38,0,16.73,0,25.07c5.18,0,10.34,0,15.5,0C27.57,33.04,27.57,32.2,27.57,31.28z M28.8,9.99
		c0.18-0.11,0.3-0.21,0.44-0.25c0.64-0.23,0.81-0.67,0.78-1.35c-0.07-1.26-0.76-2-2.02-2c-5.44,0-10.88,0-16.32,0
		c-1.31,0-2.04,0.73-2.04,2.03c0,10.23,0,20.46,0,30.69c0,1.27,0.74,2.01,2,2.01c5.45,0,10.9,0,16.35,0c1.28,0,2.01-0.74,2.01-2.02
		c0-2.95,0-5.9,0-8.85c0-0.11,0-0.22,0-0.39c-0.36,0.21-0.66,0.41-0.98,0.58c-0.18,0.09-0.23,0.21-0.23,0.41
		c0.01,1.2,0.01,2.41,0,3.61c0,0.47-0.21,0.69-0.68,0.69c-5.54,0-11.07,0-16.61,0c-0.47,0-0.68-0.21-0.68-0.69
		c0-8.72,0-17.44,0-26.16c0-0.49,0.2-0.7,0.7-0.7c5.53,0,11.05,0,16.58,0c0.49,0,0.69,0.21,0.69,0.71C28.8,8.84,28.8,9.38,28.8,9.99
		z M22.19,21.36c1.33,0.8,2.66,1.53,3.9,2.37c0.67,0.45,1.16,0.44,1.82-0.01c1.25-0.84,2.57-1.57,3.9-2.36
		c-1.57-0.94-3.12-1.87-4.67-2.79c-0.07-0.04-0.21-0.04-0.28,0.01C25.31,19.49,23.77,20.42,22.19,21.36z M37.79,11.79
		c-0.06-0.04-0.1-0.08-0.15-0.11c-1.48-0.89-2.97-1.78-4.45-2.68c-0.17-0.1-0.28-0.07-0.43,0.02c-1.46,0.88-2.93,1.76-4.39,2.64
		c-0.05,0.03-0.09,0.07-0.16,0.12c1.56,0.94,3.1,1.86,4.65,2.77c0.08,0.05,0.25,0.03,0.34-0.02c0.38-0.21,0.75-0.44,1.12-0.67
		C35.46,13.19,36.62,12.49,37.79,11.79z M34.2,21.36c0.05,0.04,0.08,0.07,0.12,0.1c1.49,0.9,2.99,1.79,4.48,2.69
		c0.18,0.11,0.29,0.04,0.43-0.04c1.43-0.86,2.86-1.72,4.29-2.58c0.08-0.05,0.15-0.1,0.24-0.16c-0.05-0.04-0.08-0.07-0.12-0.09
		c-1.49-0.9-2.99-1.79-4.48-2.69c-0.18-0.11-0.29-0.04-0.43,0.05c-1.42,0.85-2.84,1.71-4.26,2.56C34.38,21.24,34.3,21.3,34.2,21.36z
		 M38.38,12.87c-0.09,0.04-0.14,0.06-0.18,0.09c-1.48,0.89-2.96,1.77-4.43,2.66c-0.1,0.06-0.17,0.23-0.17,0.35
		c-0.01,1.34-0.01,2.68-0.01,4.02c0,0.08,0.02,0.16,0.03,0.26c0.08-0.04,0.13-0.05,0.17-0.08c1.47-0.88,2.94-1.76,4.4-2.65
		c0.1-0.06,0.18-0.23,0.18-0.35c0.01-1.28,0.01-2.56,0.01-3.83C38.38,13.21,38.38,13.06,38.38,12.87z M38.38,29.86
		c0-1.51,0-2.95-0.01-4.4c0-0.09-0.11-0.22-0.2-0.28c-1.44-0.88-2.9-1.74-4.35-2.61c-0.06-0.04-0.13-0.06-0.19-0.09
		c-0.02,0.04-0.04,0.06-0.04,0.08c0,1.43-0.01,2.85,0,4.28c0,0.1,0.1,0.23,0.19,0.28c1.45,0.88,2.91,1.76,4.37,2.63
		C38.21,29.78,38.27,29.8,38.38,29.86z M39.59,29.88c1.6-0.96,3.13-1.87,4.65-2.8c0.08-0.05,0.13-0.21,0.13-0.32
		c0.01-1.35,0.01-2.7,0-4.06c0-0.07-0.01-0.14-0.02-0.23c-0.07,0.03-0.11,0.04-0.14,0.06c-1.49,0.89-2.97,1.78-4.45,2.68
		c-0.09,0.05-0.16,0.22-0.16,0.33c-0.01,0.95-0.01,1.89-0.01,2.84C39.59,28.86,39.59,29.33,39.59,29.88z M32.38,20.27
		c0-1.51,0-2.95-0.01-4.4c0-0.1-0.13-0.23-0.23-0.29c-1.41-0.86-2.82-1.7-4.24-2.55c-0.08-0.05-0.16-0.08-0.27-0.14
		c-0.01,0.13-0.02,0.22-0.02,0.31c0,1.31,0,2.62-0.01,3.93c0,0.22,0.07,0.34,0.26,0.45c1.41,0.83,2.81,1.68,4.21,2.52
		C32.16,20.16,32.24,20.2,32.38,20.27z M21.63,22.45c0,1.51,0,2.96,0.01,4.4c0,0.1,0.13,0.23,0.23,0.29
		c1.41,0.86,2.82,1.7,4.24,2.55c0.08,0.05,0.16,0.08,0.26,0.13c0.01-0.07,0.02-0.11,0.02-0.15c0-1.39,0.01-2.79-0.01-4.18
		c0-0.11-0.12-0.27-0.22-0.33c-1.43-0.87-2.86-1.72-4.29-2.58C21.81,22.55,21.74,22.52,21.63,22.45z M32.38,22.47
		c-0.09,0.04-0.12,0.04-0.14,0.06c-1.48,0.88-2.96,1.77-4.43,2.66c-0.1,0.06-0.18,0.25-0.18,0.39c-0.01,1.32-0.01,2.64-0.01,3.96
		c0,0.09,0.01,0.18,0.02,0.3c0.07-0.03,0.1-0.05,0.14-0.07c1.48-0.89,2.96-1.77,4.43-2.66c0.09-0.06,0.17-0.22,0.17-0.33
		c0.01-0.73,0.01-1.47,0.01-2.2C32.38,23.89,32.38,23.2,32.38,22.47z M34.8,38.75c-0.67,0-1.2,0.52-1.21,1.18
		c0,0.64,0.56,1.2,1.2,1.2c0.64,0,1.17-0.53,1.18-1.18C35.98,39.28,35.47,38.75,34.8,38.75z M16.8,14.8
		c0.01-0.66-0.49-1.19-1.13-1.21c-0.69-0.01-1.23,0.5-1.24,1.17c-0.01,0.63,0.53,1.18,1.16,1.2C16.25,15.98,16.79,15.46,16.8,14.8z"
		/>
	<path id="XMLID_358_" class="st0" d="M19.82,39.93c-1,0-1.81-0.8-1.81-1.79c0-0.99,0.81-1.8,1.81-1.8c1,0,1.81,0.8,1.81,1.79
		C21.63,39.12,20.82,39.93,19.82,39.93z M19.8,37.55c-0.32,0.01-0.59,0.27-0.58,0.59c0,0.32,0.27,0.58,0.59,0.58
		c0.34,0,0.61-0.28,0.6-0.61C20.39,37.79,20.13,37.55,19.8,37.55z"/>
</g>
</svg>
