<?xml version="1.0" encoding="utf-8"?>
<!-- Generator: Adobe Illustrator 24.2.3, SVG Export Plug-In . SVG Version: 6.00 Build 0)  -->
<svg version="1.1" id="Layer_1" xmlns="http://www.w3.org/2000/svg" xmlns:xlink="http://www.w3.org/1999/xlink" x="0px" y="0px"
	 viewBox="0 0 54.01 47.06" style="enable-background:new 0 0 54.01 47.06;" xml:space="preserve">
<style type="text/css">
	.st0{fill:#FFFFFF;}
</style>
<g id="XMLID_66_">
	<path id="XMLID_363_" class="st0" d="M45.55,34.62c0.19,0,0.34,0,0.49,0c1.13,0,2.27,0,3.4,0c0.53,0,0.93,0.31,0.99,0.78
		c0.37,3.38-1.4,5.97-4.27,6.84c-0.54,0.16-1.13,0.25-1.69,0.25c-11.76,0.01-23.51,0.02-35.27,0.01c-3.23,0-5.81-2.5-5.97-5.72
		c-0.02-0.38-0.02-0.76-0.01-1.13c0.02-0.67,0.38-1.03,1.05-1.03c1.26-0.01,2.52,0,3.85,0c0-0.19,0-0.37,0-0.54
		c0-9.21,0-18.42,0-27.63c0-1.05,0.33-1.37,1.38-1.37c11.56,0,23.12,0,34.68,0c1.05,0,1.38,0.33,1.38,1.38c0,9.19,0,18.39,0,27.58
		C45.55,34.22,45.55,34.39,45.55,34.62z M43.54,7.11c-11.16,0-22.28,0-33.39,0c0,9.17,0,18.32,0,27.47c11.14,0,22.26,0,33.39,0
		C43.54,25.41,43.54,16.27,43.54,7.11z M28.8,40.51c0-0.68,0-1.3,0-1.92c1.01,0,1.98,0,3,0c0,0.66,0,1.28,0,1.89
		c1.31,0,2.58,0,3.89,0c0-0.65,0-1.27,0-1.89c1.02,0,1.98,0,3,0c0,0.66,0,1.28,0,1.92c1.96,0,3.88,0.01,5.8,0
		c1.28-0.01,2.33-0.53,3.13-1.52c0.54-0.68,0.85-1.46,0.83-2.34c-14.43,0-28.83,0-43.23,0c0.13,2.23,1.82,3.86,3.99,3.86
		c6.38,0,12.76,0,19.14,0C28.47,40.51,28.6,40.51,28.8,40.51z"/>
	<path id="XMLID_305_" class="st0" d="M26.86,10.02c4.17,0,8.34,0,12.51,0c0.94,0,1.24,0.31,1.24,1.26c0,6.38,0,12.76,0,19.15
		c0,0.93-0.33,1.26-1.26,1.26c-8.34,0-16.68,0-25.02,0c-0.93,0-1.27-0.33-1.27-1.25c0-6.38,0-12.76,0-19.15
		c0-0.97,0.3-1.26,1.28-1.26C18.52,10.02,22.69,10.02,26.86,10.02z M38.6,12.04c-7.88,0-15.71,0-23.52,0c0,5.89,0,11.75,0,17.61
		c7.86,0,15.69,0,23.52,0C38.6,23.77,38.6,17.91,38.6,12.04z"/>
	<path id="XMLID_299_" class="st0" d="M16.99,16.87c0-0.62-0.01-1.23,0-1.85c0.01-0.71,0.36-1.07,1.05-1.07
		c1.26-0.01,2.52-0.01,3.78,0c0.66,0,1.07,0.38,1.07,0.97c0,0.59-0.4,0.98-1.05,1c-0.13,0-0.25,0-0.38,0
		c-0.82,0.02-1.64,0.04-2.46,0.06c-0.02,0.82-0.03,1.64-0.05,2.46c0,0.18,0,0.36-0.02,0.54c-0.05,0.44-0.38,0.79-0.8,0.85
		c-0.48,0.07-0.89-0.14-1.07-0.56C17.02,19.13,17,18.94,17,18.76C16.99,18.13,16.99,17.5,16.99,16.87z"/>
	<path id="XMLID_298_" class="st0" d="M30.8,23.92c-0.08,0.14-0.17,0.42-0.36,0.61c-1.27,1.3-2.56,2.58-3.85,3.86
		c-0.46,0.45-1.04,0.46-1.45,0.04c-0.41-0.41-0.39-1,0.06-1.45c1.28-1.29,2.57-2.57,3.85-3.85c0.31-0.31,0.68-0.43,1.11-0.25
		C30.56,23.05,30.76,23.36,30.8,23.92z"/>
	<path id="XMLID_296_" class="st0" d="M29.86,18.92c-0.13,0.23-0.23,0.51-0.41,0.69c-1.27,1.3-2.56,2.58-3.85,3.86
		c-0.43,0.43-1.03,0.43-1.43,0.04c-0.4-0.38-0.41-1,0.01-1.43c1.3-1.31,2.61-2.62,3.92-3.92c0.32-0.32,0.71-0.38,1.12-0.2
		C29.6,18.15,29.79,18.46,29.86,18.92z"/>
</g>
</svg>
