<?xml version="1.0" encoding="utf-8"?>
<!-- Generator: Adobe Illustrator 24.2.3, SVG Export Plug-In . SVG Version: 6.00 Build 0)  -->
<svg version="1.1" id="Layer_1" xmlns="http://www.w3.org/2000/svg" xmlns:xlink="http://www.w3.org/1999/xlink" x="0px" y="0px"
	 viewBox="0 0 54.01 47.06" style="enable-background:new 0 0 54.01 47.06;" xml:space="preserve">
<style type="text/css">
	.st0{fill:#FFFFFF;}
</style>
<g id="XMLID_71_">
	<path id="XMLID_553_" class="st0" d="M15.54,23.76c0-4.15,0-8.27,0-12.41c7.43,0,14.85,0,22.3,0c0,1.36,0,2.73,0,4.13
		c-0.13,0-0.26,0-0.39,0c-1.59,0-3.18,0-4.77,0c-0.48,0-0.61,0.13-0.61,0.6c0,2.64,0,5.27,0,7.91c0,0.45,0.14,0.59,0.59,0.59
		c1.59,0,3.18,0,4.77,0c0.13,0,0.26,0,0.41,0c0,4.15,0,8.27,0,12.41c-7.44,0-14.86,0-22.3,0c0-1.37,0-2.73,0-4.14
		c0.12,0,0.25,0,0.37,0c1.59,0,3.18,0,4.77,0c0.5,0,0.63-0.12,0.63-0.62c0-2.62,0-5.25,0-7.87c0-0.48-0.13-0.61-0.61-0.61
		c-1.59,0-3.18,0-4.77,0C15.81,23.76,15.69,23.76,15.54,23.76z M23.81,16.3c1,0,2,0,3,0c0.26,0,0.53,0.03,0.77-0.03
		c0.14-0.04,0.32-0.24,0.32-0.36c0-0.14-0.17-0.29-0.3-0.41c-0.04-0.04-0.16-0.02-0.24-0.02c-2.37,0-4.75,0-7.12,0
		c-0.09,0-0.22-0.02-0.27,0.03c-0.11,0.11-0.26,0.27-0.26,0.4c0.01,0.13,0.17,0.27,0.3,0.36c0.08,0.06,0.23,0.03,0.34,0.03
		C21.51,16.3,22.66,16.3,23.81,16.3z M29.63,28.75c-0.06,0-0.12,0-0.18,0c-1.17,0-2.33,0-3.5,0c-0.39,0-0.61,0.28-0.44,0.55
		c0.09,0.13,0.32,0.24,0.49,0.24c2.39,0.02,4.78,0.01,7.17,0.01c0.36,0,0.54-0.14,0.53-0.41c-0.01-0.33-0.24-0.39-0.51-0.39
		C32.01,28.75,30.82,28.75,29.63,28.75z M28.79,32.86c0.52,0,1.03,0,1.55,0c0.44,0,0.87,0.01,1.31,0c0.26-0.01,0.43-0.15,0.42-0.42
		c0-0.25-0.17-0.37-0.42-0.39c-0.11-0.01-0.21,0-0.32,0c-1.55,0-3.1,0-4.66,0c-0.27,0-0.54-0.01-0.81,0.01
		c-0.3,0.02-0.49,0.27-0.35,0.51c0.08,0.15,0.32,0.28,0.49,0.29C26.93,32.88,27.86,32.86,28.79,32.86z M22.99,19.6
		c0.94,0,1.88,0,2.82,0c0.26,0,0.45-0.11,0.46-0.38c0.01-0.26-0.15-0.42-0.42-0.42c-1.92,0-3.83,0-5.75,0
		c-0.23,0-0.38,0.11-0.41,0.35c-0.04,0.29,0.13,0.45,0.48,0.45C21.11,19.61,22.05,19.6,22.99,19.6z"/>
	<path id="XMLID_550_" class="st0" d="M15.52,10.51c0-0.58,0-1.15,0-1.71c0-0.67-0.01-1.34,0-2.01c0.01-0.78,0.48-1.25,1.26-1.25
		c6.61,0,13.23,0,19.84,0c0.76,0,1.25,0.47,1.25,1.22c0.01,1.18,0,2.35,0,3.53c0,0.07-0.01,0.14-0.02,0.23
		C30.43,10.51,23.01,10.51,15.52,10.51z M28.34,8.04c0-0.69-0.54-1.24-1.21-1.24c-0.68,0-1.23,0.55-1.24,1.23
		c-0.01,0.67,0.55,1.24,1.22,1.25C27.78,9.28,28.33,8.72,28.34,8.04z"/>
	<path id="XMLID_542_" class="st0" d="M37.88,37.84c0,0.69,0,1.36,0,2.03c0,0.58,0.01,1.15,0,1.73c-0.01,0.74-0.49,1.22-1.22,1.22
		c-6.64,0-13.27,0-19.91,0c-0.69,0-1.2-0.46-1.21-1.11c-0.02-1.25-0.01-2.49,0-3.74c0-0.03,0.02-0.07,0.03-0.12
		C22.98,37.84,30.4,37.84,37.88,37.84z M28.32,41.54c0-0.83,0-1.63,0-2.44c-0.81,0-1.61,0-2.41,0c0,0.82,0,1.63,0,2.44
		C26.71,41.54,27.5,41.54,28.32,41.54z"/>
	<path id="XMLID_537_" class="st0" d="M8.08,32.02c0-2.47,0-4.93,0-7.41c4.12,0,8.24,0,12.38,0c0,2.45,0,4.91,0,7.41
		C16.34,32.02,12.22,32.02,8.08,32.02z M10.88,28.31c0.39-0.27,0.74-0.5,1.09-0.74c0.23-0.15,0.32-0.36,0.15-0.6
		c-0.15-0.22-0.37-0.23-0.59-0.08c-0.52,0.34-1.04,0.68-1.55,1.03c-0.34,0.24-0.34,0.52,0,0.76c0.5,0.35,1.01,0.68,1.52,1.02
		c0.23,0.15,0.45,0.17,0.62-0.07c0.18-0.26,0.06-0.46-0.18-0.62C11.61,28.8,11.27,28.57,10.88,28.31z M17.69,28.31
		c-0.38,0.25-0.71,0.49-1.06,0.71c-0.25,0.16-0.35,0.37-0.18,0.62c0.16,0.24,0.38,0.23,0.61,0.07c0.51-0.34,1.02-0.67,1.53-1.02
		c0.33-0.22,0.32-0.54-0.01-0.76c-0.49-0.34-1-0.66-1.49-1c-0.24-0.16-0.47-0.2-0.64,0.06c-0.16,0.26-0.04,0.46,0.2,0.62
		C16.98,27.83,17.32,28.06,17.69,28.31z M13.02,30.05c0.1,0.09,0.22,0.28,0.34,0.29c0.15,0.01,0.39-0.09,0.45-0.22
		c0.56-1.07,1.1-2.15,1.62-3.24c0.06-0.13,0.04-0.36-0.04-0.48c-0.15-0.24-0.51-0.18-0.66,0.1c-0.55,1.08-1.08,2.16-1.62,3.24
		C13.08,29.82,13.07,29.9,13.02,30.05z"/>
	<path id="XMLID_532_" class="st0" d="M32.93,16.32c4.13,0,8.24,0,12.38,0c0,2.47,0,4.92,0,7.41c-4.11,0-8.24,0-12.38,0
		C32.93,21.27,32.93,18.81,32.93,16.32z M42.52,20.04c-0.39,0.26-0.75,0.5-1.11,0.75c-0.21,0.15-0.29,0.35-0.14,0.57
		c0.15,0.22,0.36,0.24,0.58,0.1c0.53-0.35,1.06-0.69,1.58-1.05c0.32-0.23,0.32-0.51-0.01-0.74c-0.51-0.35-1.03-0.7-1.55-1.03
		c-0.11-0.07-0.3-0.1-0.42-0.06c-0.33,0.11-0.35,0.5-0.03,0.72C41.77,19.54,42.13,19.78,42.52,20.04z M35.72,20.04
		c0.38-0.26,0.73-0.49,1.08-0.72c0.24-0.15,0.32-0.36,0.17-0.6c-0.16-0.24-0.38-0.24-0.61-0.08c-0.51,0.34-1.02,0.67-1.52,1.02
		c-0.33,0.23-0.33,0.54-0.01,0.76c0.49,0.34,1,0.66,1.49,1c0.23,0.16,0.47,0.21,0.64-0.05c0.17-0.25,0.06-0.46-0.19-0.62
		C36.43,20.52,36.09,20.29,35.72,20.04z M38.4,22.09c0.07-0.07,0.22-0.18,0.3-0.32c0.53-1.03,1.04-2.07,1.56-3.11
		c0.13-0.25,0.14-0.49-0.15-0.63c-0.29-0.14-0.46,0.03-0.58,0.28c-0.26,0.53-0.52,1.05-0.79,1.57c-0.26,0.52-0.53,1.05-0.79,1.57
		C37.8,21.78,37.96,22.09,38.4,22.09z"/>
</g>
</svg>
