<?xml version="1.0" encoding="utf-8"?>
<!-- Generator: Adobe Illustrator 24.2.3, SVG Export Plug-In . SVG Version: 6.00 Build 0)  -->
<svg version="1.1" id="Layer_1" xmlns="http://www.w3.org/2000/svg" xmlns:xlink="http://www.w3.org/1999/xlink" x="0px" y="0px"
	 viewBox="0 0 54.01 47.06" style="enable-background:new 0 0 54.01 47.06;" xml:space="preserve">
<style type="text/css">
	.st0{fill:#FFFFFF;}
</style>
<g id="XMLID_75_">
	<path id="XMLID_882_" class="st0" d="M9.41,42.03c0-0.18,0-0.31,0-0.44c0-6.1,0-12.21,0-18.31c0-0.6,0.07-0.67,0.68-0.67
		c0.15,0,0.3,0,0.5,0c0-0.48,0-0.94,0-1.41c0-0.41,0.13-0.54,0.55-0.54c1.11,0,2.22,0,3.37,0c0-0.35,0-0.69,0-1.02
		c0-0.74,0.07-0.91,0.4-0.9c0.31,0.01,0.38,0.17,0.38,0.92c0,0.32,0,0.65,0,1c0.52,0,1.01,0,1.49,0c0.63,0,1.26,0,1.89,0
		c0.4,0,0.53,0.13,0.53,0.53c0,0.46,0,0.91,0,1.4c0.26,0,0.5,0,0.78,0c0-0.12,0-0.25,0-0.37c0-4.07,0-8.14,0-12.21
		c0-0.51,0.08-0.59,0.58-0.59c0.31,0,0.63,0,0.98,0c0-0.5,0-0.97,0-1.45c0-0.38,0.13-0.51,0.51-0.51c1.38,0,2.76,0,4.19,0
		c0-0.52-0.02-1.03,0.01-1.53c0.01-0.13,0.15-0.31,0.28-0.37c0.1-0.04,0.29,0.04,0.39,0.12c0.07,0.06,0.09,0.21,0.09,0.33
		c0.01,0.47,0,0.93,0,1.46c0.12,0,0.24,0,0.35,0c1.26,0,2.52,0,3.79,0c0.45,0,0.56,0.11,0.56,0.55c0,0.45,0,0.91,0,1.4
		c0.35,0,0.67,0,0.99,0c0.48,0,0.57,0.09,0.57,0.57c0,5.16,0,10.32,0,15.47c0,1.9,0,3.81,0,5.71c0,0.12,0,0.23,0,0.37
		c0.26,0,0.5,0,0.78,0c0-0.45,0-0.9,0-1.35c0-0.48,0.11-0.58,0.6-0.58c0.98,0,1.96,0,2.94,0c0.12,0,0.23,0,0.38,0
		c0-0.5,0-0.96,0-1.43c0-0.33,0.16-0.54,0.41-0.51c0.29,0.03,0.39,0.23,0.38,0.51c-0.01,0.46,0,0.93,0,1.43c0.7,0,1.38,0,2.05,0
		c0.44,0,0.87,0,1.31,0c0.45,0,0.56,0.12,0.57,0.55c0,0.45,0,0.91,0,1.4c0.25,0,0.48,0,0.7,0c0.35,0.01,0.47,0.13,0.47,0.47
		c0,0.74,0,1.48,0,2.22c0,2.46,0,4.92,0,7.38c0,0.12,0,0.24,0,0.41c0.37,0,0.73-0.02,1.08,0.01c0.15,0.01,0.34,0.1,0.44,0.21
		c0.16,0.2,0.02,0.49-0.25,0.55c-0.13,0.03-0.28,0.03-0.42,0.03c-12.06,0-24.12,0-36.17,0c-0.1,0-0.2,0.01-0.29,0
		c-0.24-0.02-0.42-0.13-0.43-0.4c0-0.27,0.17-0.39,0.42-0.4C8.63,42.02,9,42.03,9.41,42.03z M20.78,10.21c0,10.61,0,21.2,0,31.8
		c0.26,0,0.5,0,0.77,0c0-0.84,0-1.65,0-2.47c0-0.53,0.08-0.61,0.6-0.61c1.21,0,2.42,0,3.62,0c1.77,0,3.55,0,5.32,0
		c0.59,0,0.64,0.06,0.64,0.66c0,0.65,0,1.31,0,1.96c0,0.15,0,0.3,0,0.45c0.28,0,0.52,0,0.77,0c0-10.61,0-21.19,0-31.79
		C28.6,10.21,24.71,10.21,20.78,10.21z M10.21,23.4c0,6.22,0,12.41,0,18.6c0.26,0,0.49,0,0.76,0c0-0.58,0-1.15,0-1.71
		c0-0.51,0.08-0.59,0.59-0.59c2.35,0,4.7,0,7.05,0c0.52,0,0.59,0.08,0.59,0.61c0,0.56,0,1.12,0,1.69c0.28,0,0.52,0,0.76,0
		c0-6.21,0-12.4,0-18.6C16.7,23.4,13.48,23.4,10.21,23.4z M43.09,42.01c0-3.23,0-6.44,0-9.66c-3.26,0-6.51,0-9.75,0
		c0,3.23,0,6.44,0,9.65c0.26,0,0.5,0,0.76,0c0-0.73,0-1.43,0-2.14c0-0.45,0.1-0.55,0.56-0.55c2.37,0,4.74,0,7.12,0
		c0.46,0,0.55,0.09,0.55,0.56c0,0.7,0,1.41,0,2.13C42.59,42.01,42.82,42.01,43.09,42.01z M34.89,42.01c2.23,0,4.42,0,6.63,0
		c0-0.64,0-1.27,0-1.88c-2.22,0-4.43,0-6.63,0C34.89,40.76,34.89,41.37,34.89,42.01z M30.95,8.27c-2.89,0-5.74,0-8.59,0
		c0,0.39,0,0.75,0,1.12c2.87,0,5.73,0,8.59,0C30.95,9.01,30.95,8.65,30.95,8.27z M11.78,40.51c0,0.52,0,1.01,0,1.51
		c2.22,0,4.41,0,6.62,0c0-0.51,0-1,0-1.51C16.19,40.51,14,40.51,11.78,40.51z M26.23,42.01c0-0.77,0-1.53,0-2.28
		c-1.3,0-2.58,0-3.87,0c0,0.77,0,1.52,0,2.28C23.66,42.01,24.94,42.01,26.23,42.01z M27.05,42c1.32,0,2.6,0,3.89,0
		c0-0.77,0-1.52,0-2.26c-1.31,0-2.6,0-3.89,0C27.05,40.5,27.05,41.24,27.05,42z M34.88,31.53c2.36,0,4.69,0,7.02,0
		c0-0.39,0-0.75,0-1.12c-2.35,0-4.68,0-7.02,0C34.88,30.79,34.88,31.15,34.88,31.53z M11.38,22.58c2.36,0,4.69,0,7.02,0
		c0-0.38,0-0.73,0-1.09c-2.35,0-4.68,0-7.02,0C11.38,21.87,11.38,22.21,11.38,22.58z"/>
	<path id="XMLID_797_" class="st0" d="M26.61,38.16c-1.49,0-2.98,0-4.47,0c-0.51,0-0.59-0.08-0.59-0.58c0-0.41,0-0.83,0-1.24
		c0-0.39,0.13-0.53,0.53-0.53c1.12,0,2.24,0,3.36,0c1.89,0,3.78,0,5.67,0c0.53,0,0.63,0.1,0.63,0.62c0,0.4,0,0.8,0,1.21
		c0,0.41-0.11,0.52-0.53,0.52C29.68,38.16,28.15,38.16,26.61,38.16z M22.35,37.35c2.88,0,5.73,0,8.58,0c0-0.25,0-0.48,0-0.71
		c-2.87,0-5.71,0-8.58,0C22.35,36.87,22.35,37.1,22.35,37.35z"/>
	<path id="XMLID_794_" class="st0" d="M26.65,22.62c-1.5,0-3,0-4.5,0c-0.51,0-0.59-0.09-0.59-0.58c0-0.41,0-0.83,0-1.24
		c0-0.39,0.13-0.53,0.53-0.53c0.87,0,1.74,0,2.61,0c2.14,0,4.28,0,6.42,0c0.53,0,0.63,0.1,0.63,0.62c0,0.4,0,0.8,0,1.21
		c0,0.4-0.11,0.52-0.53,0.52C29.69,22.62,28.17,22.62,26.65,22.62z M30.95,21.11c-2.88,0-5.74,0-8.59,0c0,0.25,0,0.47,0,0.7
		c2.87,0,5.73,0,8.59,0C30.95,21.56,30.95,21.35,30.95,21.11z"/>
	<path id="XMLID_791_" class="st0" d="M26.66,13.31c-1.49,0-2.98,0-4.47,0c-0.53,0-0.63-0.1-0.63-0.62c0-0.39,0-0.78,0-1.18
		c0-0.46,0.1-0.55,0.56-0.55c2.39,0,4.79,0,7.18,0c0.64,0,1.28,0,1.93,0c0.41,0,0.52,0.11,0.52,0.53c0,0.41,0,0.83,0,1.24
		c0,0.46-0.12,0.58-0.57,0.58C29.66,13.31,28.16,13.31,26.66,13.31z M22.35,12.48c2.88,0,5.74,0,8.59,0c0-0.25,0-0.47,0-0.7
		c-2.87,0-5.73,0-8.59,0C22.35,12.02,22.35,12.23,22.35,12.48z"/>
	<path id="XMLID_788_" class="st0" d="M26.68,26.5c1.49,0,2.98,0,4.47,0c0.5,0,0.59,0.09,0.59,0.59c0,0.42,0,0.85,0,1.27
		c0,0.34-0.13,0.47-0.47,0.49c-0.07,0-0.13,0-0.2,0c-2.95,0-5.9,0-8.85,0c-0.59,0-0.67-0.08-0.67-0.68c0-0.37,0-0.74,0-1.11
		c0-0.46,0.1-0.56,0.55-0.56C23.63,26.49,25.15,26.5,26.68,26.5z M22.35,28.01c2.88,0,5.74,0,8.59,0c0-0.25,0-0.47,0-0.69
		c-2.87,0-5.73,0-8.59,0C22.35,27.56,22.35,27.77,22.35,28.01z"/>
	<path id="XMLID_785_" class="st0" d="M26.63,25.74c-1.5,0-3,0-4.5,0c-0.47,0-0.58-0.1-0.58-0.57c0-0.41,0-0.83,0-1.24
		c0-0.43,0.11-0.54,0.54-0.54c2.67,0,5.35,0,8.02,0c0.37,0,0.74,0,1.11,0c0.4,0,0.51,0.12,0.51,0.53c0,0.42,0,0.85,0,1.27
		c0,0.42-0.12,0.54-0.54,0.54C29.68,25.74,28.16,25.74,26.63,25.74z M30.95,24.19c-2.89,0-5.74,0-8.59,0c0,0.26,0,0.49,0,0.73
		c2.88,0,5.73,0,8.59,0C30.95,24.67,30.95,24.45,30.95,24.19z"/>
	<path id="XMLID_782_" class="st0" d="M26.64,31.94c-1.52,0-3.04,0-4.57,0c-0.42,0-0.52-0.11-0.52-0.52c0-0.42,0-0.85,0-1.27
		c0-0.44,0.12-0.56,0.56-0.56c2.7,0,5.39,0,8.09,0c0.35,0,0.7,0,1.04,0c0.36,0.01,0.49,0.14,0.49,0.49c0,0.46,0,0.91,0,1.37
		c0,0.36-0.12,0.48-0.5,0.48C29.71,31.94,28.18,31.94,26.64,31.94z M30.95,30.41c-2.88,0-5.74,0-8.59,0c0,0.26,0,0.49,0,0.73
		c2.87,0,5.73,0,8.59,0C30.95,30.89,30.95,30.66,30.95,30.41z"/>
	<path id="XMLID_779_" class="st0" d="M26.65,16.4c-1.51,0-3.02,0-4.53,0c-0.46,0-0.56-0.09-0.56-0.55c0-0.41,0-0.83,0-1.24
		c0-0.44,0.12-0.56,0.56-0.56c1.79,0,3.59,0,5.38,0c1.23,0,2.46,0,3.69,0c0.44,0,0.56,0.12,0.56,0.56c0,0.42,0,0.85,0,1.27
		c0,0.41-0.11,0.51-0.53,0.51C29.69,16.4,28.17,16.4,26.65,16.4z M22.35,15.6c2.89,0,5.74,0,8.58,0c0-0.26,0-0.49,0-0.72
		c-2.88,0-5.73,0-8.58,0C22.35,15.13,22.35,15.35,22.35,15.6z"/>
	<path id="XMLID_776_" class="st0" d="M26.66,32.72c1.5,0,3,0,4.5,0c0.48,0,0.57,0.09,0.57,0.56c0,0.4,0,0.8,0,1.21
		c0,0.46-0.12,0.58-0.58,0.58c-2.49,0-4.98,0-7.47,0c-0.53,0-1.07,0-1.6,0c-0.42,0-0.54-0.13-0.54-0.55c0-0.4,0-0.8,0-1.21
		c0-0.52,0.08-0.59,0.61-0.59C23.66,32.72,25.16,32.72,26.66,32.72z M22.35,34.24c2.88,0,5.73,0,8.58,0c0-0.26,0-0.49,0-0.72
		c-2.87,0-5.72,0-8.58,0C22.35,33.76,22.35,33.99,22.35,34.24z"/>
	<path id="XMLID_773_" class="st0" d="M26.64,17.18c1.49,0,2.98,0,4.47,0c0.57,0,0.63,0.06,0.63,0.64c0,0.38,0,0.76,0,1.14
		c0,0.44-0.12,0.56-0.56,0.56c-1.58,0-3.15,0-4.73,0c-1.44,0-2.87,0-4.31,0c-0.49,0-0.59-0.11-0.59-0.59c0-0.42,0-0.85,0-1.27
		c0-0.36,0.12-0.48,0.49-0.48C23.58,17.18,25.11,17.18,26.64,17.18z M22.35,18.7c2.88,0,5.73,0,8.58,0c0-0.26,0-0.49,0-0.72
		c-2.87,0-5.72,0-8.58,0C22.35,18.23,22.35,18.45,22.35,18.7z"/>
	<path id="XMLID_770_" class="st0" d="M15.08,33.49c1.18,0,2.37,0,3.55,0c0.47,0,0.56,0.1,0.56,0.58c0,0.4,0,0.8,0,1.21
		c0,0.44-0.12,0.56-0.56,0.56c-1.23,0-2.46,0-3.68,0c-1.13,0-2.26,0-3.39,0c-0.48,0-0.6-0.12-0.6-0.59c0-0.41,0-0.83,0-1.24
		c0-0.41,0.11-0.52,0.52-0.52C12.69,33.49,13.89,33.49,15.08,33.49z M18.41,34.31c-2.23,0-4.43,0-6.63,0c0,0.25,0,0.47,0,0.69
		c2.22,0,4.42,0,6.63,0C18.41,34.76,18.41,34.55,18.41,34.31z"/>
	<path id="XMLID_767_" class="st0" d="M15.07,29.62c-1.16,0-2.33,0-3.49,0c-0.52,0-0.6-0.09-0.6-0.61c0-0.41,0-0.83,0-1.24
		c0-0.36,0.13-0.48,0.49-0.5c0.23-0.01,0.46,0,0.69,0c2.13,0,4.27,0,6.4,0c0.56,0,0.65,0.09,0.65,0.63c0,0.4,0,0.81,0,1.21
		c0,0.39-0.12,0.51-0.54,0.51C17.46,29.62,16.27,29.62,15.07,29.62z M11.77,28.79c2.23,0,4.43,0,6.63,0c0-0.25,0-0.47,0-0.69
		c-2.22,0-4.42,0-6.63,0C11.77,28.34,11.77,28.55,11.77,28.79z"/>
	<path id="XMLID_764_" class="st0" d="M15.09,24.17c1.2,0,2.39,0,3.59,0c0.42,0,0.53,0.11,0.53,0.51c0,0.45,0,0.89,0,1.34
		c0,0.34-0.13,0.49-0.46,0.49c-2.44,0-4.87,0-7.31,0c-0.33,0-0.46-0.15-0.46-0.49c0-0.46,0-0.91,0-1.37c0-0.36,0.12-0.48,0.49-0.48
		C12.67,24.17,13.88,24.17,15.09,24.17z M11.77,25.7c2.23,0,4.43,0,6.63,0c0-0.26,0-0.49,0-0.72c-2.22,0-4.42,0-6.63,0
		C11.77,25.22,11.77,25.45,11.77,25.7z"/>
	<path id="XMLID_761_" class="st0" d="M15.07,32.72c-1.18,0-2.37,0-3.55,0c-0.43,0-0.54-0.11-0.54-0.53c0-0.45,0-0.89,0-1.34
		c0-0.34,0.13-0.47,0.47-0.47c2.42,0,4.85,0,7.27,0c0.35,0,0.48,0.14,0.48,0.5c0,0.45,0,0.89,0,1.34c0,0.38-0.12,0.5-0.51,0.5
		C17.49,32.73,16.28,32.72,15.07,32.72z M18.4,31.19c-2.23,0-4.43,0-6.63,0c0,0.26,0,0.49,0,0.74c2.22,0,4.41,0,6.63,0
		C18.4,31.67,18.4,31.44,18.4,31.19z"/>
	<path id="XMLID_758_" class="st0" d="M15.05,38.93c-1.18,0-2.37,0-3.55,0c-0.42,0-0.52-0.11-0.52-0.52c0-0.45,0-0.89,0-1.34
		c0-0.34,0.13-0.49,0.46-0.49c2.43,0,4.87,0,7.3,0c0.33,0,0.46,0.15,0.46,0.49c0,0.46,0,0.91,0,1.37c0,0.36-0.12,0.48-0.5,0.48
		C17.49,38.93,16.27,38.93,15.05,38.93z M11.77,38.12c2.23,0,4.43,0,6.63,0c0-0.25,0-0.47,0-0.72c-2.22,0-4.42,0-6.63,0
		C11.77,37.65,11.77,37.88,11.77,38.12z"/>
	<path id="XMLID_755_" class="st0" d="M38.23,33.11c1.17,0,2.35,0,3.52,0c0.48,0,0.57,0.09,0.57,0.57c0,0.41,0,0.83,0,1.24
		c0,0.41-0.13,0.54-0.55,0.54c-1.09,0-2.17,0-3.26,0c-1.25,0-2.5,0-3.75,0c-0.59,0-0.67-0.08-0.67-0.68c0-0.38,0-0.76,0-1.14
		c0-0.42,0.1-0.52,0.52-0.53C35.81,33.1,37.02,33.11,38.23,33.11z M34.89,34.62c2.23,0,4.43,0,6.63,0c0-0.25,0-0.47,0-0.7
		c-2.22,0-4.43,0-6.63,0C34.89,34.17,34.89,34.38,34.89,34.62z"/>
	<path id="XMLID_752_" class="st0" d="M38.18,38.54c-1.18,0-2.37,0-3.55,0c-0.43,0-0.53-0.11-0.53-0.54c0-0.41,0-0.83,0-1.24
		c0-0.45,0.12-0.57,0.58-0.57c1.59,0,3.17,0,4.76,0c0.76,0,1.52,0,2.28,0c0.49,0,0.6,0.11,0.6,0.58c0,0.42,0,0.85,0,1.27
		c0,0.37-0.12,0.49-0.49,0.49C40.61,38.55,39.4,38.54,38.18,38.54z M41.52,37.02c-2.23,0-4.43,0-6.62,0c0,0.26,0,0.49,0,0.72
		c2.22,0,4.41,0,6.62,0C41.52,37.5,41.52,37.27,41.52,37.02z"/>
</g>
</svg>
