<?xml version="1.0" encoding="utf-8"?>
<!-- Generator: Adobe Illustrator 24.2.3, SVG Export Plug-In . SVG Version: 6.00 Build 0)  -->
<svg version="1.1" id="Layer_1" xmlns="http://www.w3.org/2000/svg" xmlns:xlink="http://www.w3.org/1999/xlink" x="0px" y="0px"
	 viewBox="0 0 54.01 47.06" style="enable-background:new 0 0 54.01 47.06;" xml:space="preserve">
<style type="text/css">
	.st0{fill:#FFFFFF;}
</style>
<g id="XMLID_70_">
	<path id="XMLID_544_" class="st0" d="M26.97,42.59c-5.89,0-11.78,0-17.68,0c-0.86,0-1.1-0.24-1.1-1.08c0-11.81,0-23.61,0-35.42
		C8.2,5.24,8.44,5,9.29,5C21.1,5,32.91,5,44.71,5c0.85,0,1.1,0.24,1.1,1.09c0,11.81,0,23.61,0,35.42c0,0.18-0.01,0.36-0.05,0.53
		c-0.09,0.34-0.36,0.54-0.71,0.55c-0.13,0.01-0.27,0-0.4,0C38.76,42.59,32.86,42.59,26.97,42.59z M9.81,12.85
		c0,9.39,0,18.75,0,28.12c11.47,0,22.93,0,34.39,0c0-9.38,0-18.75,0-28.12C32.73,12.85,21.29,12.85,9.81,12.85z M44.2,11.24
		c0-1.57,0-3.1,0-4.65c-11.47,0-22.92,0-34.38,0c0,1.56,0,3.1,0,4.65C21.29,11.24,32.73,11.24,44.2,11.24z"/>
	<path id="XMLID_468_" class="st0" d="M39.5,23.41c0.2,0.5,0.37,0.95,0.56,1.39c0.04,0.09,0.18,0.18,0.28,0.18
		c0.48,0.02,0.96,0,1.44,0.01c0.57,0.01,0.87,0.29,0.88,0.86c0.01,0.71,0.01,1.43,0,2.14c-0.01,0.57-0.33,0.89-0.89,0.89
		c-0.55,0-1.09,0-1.64,0c-0.21,0.51-0.42,1.01-0.65,1.55c0.36,0.36,0.74,0.74,1.13,1.12c0.46,0.47,0.46,0.86,0,1.33
		c-0.48,0.48-0.96,0.96-1.44,1.44c-0.43,0.43-0.84,0.42-1.27-0.01c-0.33-0.33-0.67-0.65-0.99-0.99c-0.13-0.14-0.23-0.17-0.4-0.07
		c-0.2,0.12-0.42,0.21-0.63,0.3c-0.22,0.09-0.44,0.16-0.68,0.24c0,0.55,0,1.11,0,1.66c0,0.55-0.28,0.87-0.82,0.89
		c-0.75,0.02-1.49,0.02-2.24,0c-0.52-0.01-0.81-0.34-0.81-0.86c0-0.49-0.01-0.98,0-1.47c0-0.18-0.05-0.27-0.24-0.33
		c-0.37-0.12-0.73-0.28-1.07-0.45c-0.17-0.08-0.27-0.07-0.4,0.07c-0.33,0.35-0.67,0.68-1.01,1.02c-0.4,0.4-0.83,0.4-1.23,0.01
		c-0.51-0.5-1.01-1-1.51-1.51c-0.39-0.4-0.39-0.83,0.01-1.23c0.39-0.4,0.79-0.78,1.17-1.15c-0.19-0.49-0.36-0.94-0.56-1.39
		c-0.04-0.08-0.17-0.16-0.26-0.17c-0.47-0.02-0.94,0-1.4-0.01c-0.64-0.01-0.94-0.31-0.95-0.95c-0.01-0.67-0.01-1.34,0-2
		c0.01-0.64,0.3-0.93,0.95-0.94c0.46,0,0.91-0.01,1.37,0c0.18,0,0.27-0.04,0.34-0.23c0.13-0.38,0.31-0.74,0.45-1.11
		c0.03-0.09,0.01-0.26-0.05-0.33c-0.33-0.36-0.69-0.7-1.03-1.05c-0.41-0.42-0.41-0.83,0.01-1.25c0.49-0.5,0.99-1,1.49-1.49
		c0.4-0.39,0.83-0.39,1.23,0c0.34,0.34,0.68,0.67,1.01,1.02c0.13,0.13,0.22,0.16,0.4,0.07c0.36-0.18,0.74-0.3,1.1-0.47
		c0.09-0.04,0.2-0.17,0.2-0.27c0.02-0.48,0.01-0.96,0.01-1.44c0-0.59,0.32-0.9,0.91-0.91c0.69,0,1.38,0,2.07,0
		c0.6,0,0.89,0.29,0.9,0.9c0,0.47,0.01,0.94,0,1.4c0,0.18,0.05,0.27,0.23,0.33c0.38,0.13,0.75,0.28,1.11,0.46
		c0.17,0.08,0.25,0.05,0.37-0.07c0.33-0.35,0.67-0.68,1.01-1.02c0.41-0.4,0.85-0.4,1.26,0c0.5,0.49,0.99,0.99,1.49,1.49
		c0.4,0.4,0.4,0.83,0,1.23C40.28,22.65,39.88,23.04,39.5,23.41z M32.94,19.13c-0.01,0.06-0.02,0.08-0.02,0.1c0,0.45,0,0.89,0,1.34
		c0,0.56-0.22,0.84-0.78,0.95c-0.7,0.14-1.33,0.41-1.92,0.8c-0.45,0.3-0.77,0.27-1.16-0.12c-0.35-0.34-0.68-0.7-1.04-1.06
		c-0.18,0.2-0.33,0.36-0.52,0.58c0.35,0.34,0.72,0.67,1.08,1.03c0.35,0.35,0.39,0.69,0.11,1.11c-0.41,0.63-0.7,1.31-0.84,2.05
		c-0.08,0.4-0.33,0.62-0.73,0.66c-0.19,0.02-0.38,0.01-0.57,0.01c-0.36,0-0.72,0-1.08,0c0,0.27,0,0.47,0,0.71c0.52,0,1.02,0,1.52,0
		c0.49,0,0.77,0.23,0.87,0.7c0.15,0.7,0.41,1.36,0.8,1.96c0.33,0.5,0.29,0.81-0.14,1.24c-0.34,0.33-0.68,0.66-0.99,0.95
		c0.19,0.22,0.33,0.39,0.5,0.58c0.36-0.37,0.7-0.72,1.04-1.06c0.38-0.38,0.68-0.37,1.17-0.13c0.62,0.31,1.27,0.59,1.92,0.81
		c0.57,0.19,0.77,0.38,0.77,0.99c0,0.47,0,0.95,0,1.42c0.25,0,0.46,0,0.7,0c0-0.51-0.01-1,0-1.48c0.01-0.53,0.23-0.74,0.74-0.92
		c0.65-0.22,1.29-0.47,1.9-0.78c0.56-0.29,0.83-0.3,1.27,0.14c0.34,0.34,0.67,0.67,0.95,0.96c0.21-0.17,0.39-0.31,0.59-0.47
		c-0.38-0.37-0.73-0.69-1.06-1.03c-0.4-0.4-0.44-0.71-0.13-1.19c0.39-0.6,0.67-1.25,0.8-1.96c0.09-0.49,0.38-0.73,0.88-0.73
		c0.5,0,1,0,1.5,0c0-0.26,0-0.47,0-0.72c-0.52,0-1.02,0.01-1.52,0c-0.49-0.01-0.77-0.24-0.86-0.71c-0.14-0.71-0.41-1.36-0.8-1.96
		C37.57,23.41,37.6,23.1,38,22.7c0.35-0.34,0.7-0.68,1.04-1.01c-0.2-0.19-0.35-0.34-0.55-0.54c-0.32,0.34-0.65,0.69-0.98,1.03
		c-0.41,0.42-0.69,0.41-1.22,0.13c-0.59-0.3-1.2-0.58-1.83-0.77c-0.64-0.2-0.84-0.37-0.84-1.04c0-0.45,0-0.91,0-1.37
		C33.37,19.13,33.16,19.13,32.94,19.13z"/>
	<path id="XMLID_464_" class="st0" d="M22.31,33.97c0,1.51,0,3.03,0,4.54c0,0.68-0.27,0.95-0.95,0.95c-3.02,0-6.03,0-9.05,0
		c-0.7,0-0.97-0.27-0.97-0.97c0-3.02,0-6.03,0-9.05c0-0.66,0.29-0.95,0.95-0.95c3.02,0,6.03,0,9.05,0c0.69,0,0.96,0.28,0.96,0.97
		C22.31,30.96,22.31,32.47,22.31,33.97z M20.73,37.85c0-1.55,0-3.08,0-4.63c-2.61,0-5.19,0-7.77,0c0,1.56,0,3.09,0,4.63
		C15.56,37.85,18.14,37.85,20.73,37.85z M12.94,31.6c2.62,0,5.19,0,7.77,0c0-0.52,0-1.01,0-1.5c-2.61,0-5.18,0-7.77,0
		C12.94,30.61,12.94,31.1,12.94,31.6z"/>
	<path id="XMLID_454_" class="st0" d="M11.34,19.9c0-1.53,0-3.05,0-4.58c0-0.63,0.3-0.93,0.94-0.93c3.03,0,6.06,0,9.09,0
		c0.65,0,0.94,0.29,0.94,0.93c0,3.04,0,6.08,0,9.12c0,0.65-0.28,0.93-0.94,0.93c-3.03,0-6.06,0-9.09,0c-0.67,0-0.94-0.29-0.94-0.96
		C11.34,22.9,11.34,21.4,11.34,19.9z M20.73,19.14c-2.6,0-5.19,0-7.77,0c0,1.56,0,3.1,0,4.63c2.6,0,5.18,0,7.77,0
		C20.73,22.22,20.73,20.69,20.73,19.14z M12.94,16c0,0.52,0,1.01,0,1.51c2.59,0,5.17,0,7.77,0c0-0.51,0-1,0-1.51
		C18.12,16,15.54,16,12.94,16z"/>
	<path id="XMLID_453_" class="st0" d="M34.79,9.7c-2.32,0-4.63,0-6.95,0c-0.61,0-1.02-0.53-0.78-1.04c0.09-0.2,0.33-0.36,0.54-0.49
		c0.11-0.07,0.28-0.05,0.42-0.05c4.54,0,9.09,0,13.63,0c0.42,0,0.78,0.08,0.95,0.52c0.2,0.49-0.14,1.03-0.67,1.06
		c-0.11,0.01-0.22,0-0.33,0C39.34,9.7,37.06,9.7,34.79,9.7z"/>
	<path id="XMLID_449_" class="st0" d="M19.93,9.7c-0.27,0-0.53,0.01-0.8,0c-0.4-0.01-0.71-0.31-0.75-0.71
		C18.34,8.61,18.61,8.2,19,8.17c0.64-0.04,1.29-0.04,1.92,0c0.38,0.03,0.64,0.43,0.61,0.8c-0.03,0.41-0.35,0.72-0.77,0.73
		C20.49,9.71,20.21,9.7,19.93,9.7z"/>
	<path id="XMLID_448_" class="st0" d="M12.88,9.7c-0.26,0-0.51,0.01-0.77,0c-0.42-0.01-0.74-0.31-0.77-0.72
		c-0.03-0.4,0.24-0.79,0.66-0.82c0.61-0.04,1.22-0.04,1.83,0c0.44,0.03,0.69,0.41,0.65,0.85c-0.03,0.39-0.35,0.67-0.76,0.69
		c-0.02,0-0.04,0-0.07,0C13.39,9.7,13.14,9.7,12.88,9.7L12.88,9.7z"/>
	<path id="XMLID_406_" class="st0" d="M29.04,26.94c0-2.35,1.89-4.26,4.23-4.26c2.32,0,4.26,1.95,4.25,4.26
		c-0.01,2.31-1.91,4.21-4.21,4.21C30.93,31.16,29.05,29.3,29.04,26.94z M33.27,29.57c1.47,0,2.66-1.19,2.66-2.65
		c0-1.45-1.2-2.65-2.66-2.65c-1.46,0-2.64,1.19-2.64,2.66C30.62,28.41,31.8,29.57,33.27,29.57z"/>
	<path id="XMLID_403_" class="st0" d="M15.61,35.54c0.09,0.1,0.19,0.2,0.27,0.3c0.25,0.33,0.22,0.75-0.06,1.03
		c-0.27,0.27-0.7,0.34-1,0.09c-0.35-0.3-0.69-0.63-0.99-0.99c-0.25-0.3-0.19-0.68,0.1-1c0.24-0.26,0.5-0.51,0.76-0.76
		c0.36-0.34,0.81-0.34,1.13-0.02c0.31,0.32,0.31,0.78-0.02,1.14C15.74,35.4,15.68,35.47,15.61,35.54z"/>
	<path id="XMLID_402_" class="st0" d="M17.98,35.6c-0.14-0.31-0.3-0.54-0.35-0.8c-0.07-0.34,0.12-0.6,0.43-0.76
		c0.3-0.15,0.6-0.11,0.84,0.11c0.31,0.27,0.6,0.57,0.88,0.87c0.28,0.31,0.26,0.74-0.03,1.06c-0.25,0.27-0.51,0.53-0.78,0.78
		c-0.34,0.32-0.79,0.32-1.11,0.02c-0.32-0.3-0.32-0.78,0-1.14C17.91,35.68,17.97,35.62,17.98,35.6z"/>
	<path id="XMLID_399_" class="st0" d="M15.62,21.44c0.26,0.27,0.53,0.53,0.41,0.96c-0.17,0.59-0.83,0.81-1.29,0.41
		c-0.29-0.26-0.57-0.54-0.83-0.82c-0.31-0.34-0.31-0.75,0-1.08c0.25-0.27,0.51-0.53,0.78-0.78c0.36-0.34,0.81-0.34,1.13-0.02
		c0.31,0.32,0.31,0.78-0.02,1.14C15.74,21.3,15.68,21.37,15.62,21.44z"/>
	<path id="XMLID_396_" class="st0" d="M17.99,21.5c-0.14-0.3-0.3-0.53-0.36-0.78c-0.07-0.34,0.11-0.6,0.42-0.76
		c0.3-0.16,0.6-0.12,0.84,0.09c0.32,0.29,0.63,0.59,0.92,0.92c0.25,0.28,0.22,0.72-0.04,1c-0.25,0.27-0.51,0.53-0.78,0.78
		c-0.35,0.33-0.82,0.34-1.14,0.04c-0.33-0.31-0.32-0.79,0.02-1.16C17.92,21.57,17.97,21.52,17.99,21.5z"/>
</g>
</svg>
