<?xml version="1.0" encoding="utf-8"?>
<!-- Generator: Adobe Illustrator 24.2.3, SVG Export Plug-In . SVG Version: 6.00 Build 0)  -->
<svg version="1.1" id="Layer_1" xmlns="http://www.w3.org/2000/svg" xmlns:xlink="http://www.w3.org/1999/xlink" x="0px" y="0px"
	 viewBox="0 0 54.01 47.06" style="enable-background:new 0 0 54.01 47.06;" xml:space="preserve">
<style type="text/css">
	.st0{fill:#FFFFFF;}
</style>
<g id="XMLID_74_">
	<path id="XMLID_512_" class="st0" d="M40.66,20.34c0.16,0.09,0.28,0.16,0.4,0.22c1.76,0.9,3.52,1.81,5.29,2.7
		c0.4,0.2,0.7,0.44,0.69,0.93c-0.01,0.47-0.3,0.71-0.68,0.9c-1.76,0.9-3.52,1.8-5.29,2.7c-0.12,0.06-0.24,0.13-0.4,0.22
		c0.15,0.09,0.26,0.16,0.38,0.22c1.77,0.91,3.54,1.82,5.32,2.72c0.38,0.19,0.67,0.44,0.67,0.9c0,0.47-0.28,0.72-0.66,0.91
		c-6.36,3.25-12.71,6.5-19.07,9.76c-0.42,0.21-0.79,0.22-1.21,0c-6.35-3.26-12.71-6.51-19.07-9.76c-0.38-0.2-0.67-0.44-0.67-0.91
		c0-0.47,0.28-0.72,0.67-0.91c1.89-0.96,3.77-1.93,5.72-2.93c-0.17-0.09-0.29-0.17-0.41-0.23c-1.76-0.9-3.52-1.81-5.29-2.7
		c-0.4-0.2-0.7-0.44-0.69-0.93c0.01-0.47,0.3-0.71,0.68-0.9c1.76-0.9,3.52-1.8,5.29-2.7c0.12-0.06,0.24-0.13,0.4-0.22
		c-0.15-0.09-0.26-0.16-0.38-0.22c-1.77-0.91-3.54-1.82-5.32-2.72c-0.38-0.19-0.67-0.43-0.67-0.9c0-0.47,0.28-0.72,0.66-0.91
		c6.37-3.25,12.74-6.51,19.1-9.78c0.39-0.2,0.74-0.21,1.14,0c6.38,3.27,12.75,6.53,19.13,9.79c0.37,0.19,0.64,0.44,0.64,0.89
		c0,0.45-0.26,0.7-0.63,0.89c-1.77,0.9-3.55,1.81-5.32,2.72C40.96,20.17,40.83,20.24,40.66,20.34z M44.11,16.51
		c-0.12-0.08-0.18-0.12-0.24-0.15c-5.64-2.89-11.28-5.77-16.93-8.65c-0.13-0.07-0.37-0.05-0.51,0.02
		c-5.61,2.86-11.22,5.73-16.83,8.6c-0.09,0.05-0.18,0.11-0.29,0.18c0.1,0.06,0.15,0.09,0.21,0.12c5.64,2.89,11.29,5.77,16.92,8.66
		c0.23,0.12,0.39,0.06,0.59-0.04c3.81-1.95,7.63-3.9,11.44-5.85C40.33,18.44,42.19,17.49,44.11,16.51z M9.28,24.17
		c0.11,0.07,0.16,0.1,0.22,0.13c5.65,2.89,11.3,5.78,16.96,8.66c0.13,0.07,0.37,0.05,0.51-0.02c5.62-2.86,11.24-5.74,16.86-8.61
		c0.08-0.04,0.15-0.1,0.26-0.17c-0.16-0.09-0.28-0.15-0.4-0.21c-1.55-0.79-3.11-1.57-4.65-2.38c-0.29-0.15-0.52-0.16-0.82-0.01
		c-3.63,1.87-7.27,3.72-10.89,5.59c-0.43,0.22-0.81,0.22-1.24,0c-3.55-1.83-7.11-3.63-10.66-5.48c-0.48-0.25-0.83-0.25-1.3,0.01
		C12.55,22.53,10.94,23.32,9.28,24.17z M44.12,31.85c-1.75-0.9-3.44-1.75-5.11-2.62c-0.27-0.14-0.48-0.14-0.76,0
		c-3.64,1.88-7.29,3.73-10.93,5.61c-0.43,0.22-0.81,0.22-1.24,0c-3.66-1.88-7.33-3.75-11-5.64c-0.21-0.11-0.37-0.12-0.59-0.01
		c-1.61,0.84-3.23,1.66-4.85,2.48c-0.1,0.05-0.2,0.12-0.34,0.2c0.12,0.07,0.2,0.11,0.28,0.15c5.62,2.87,11.24,5.75,16.85,8.63
		c0.22,0.11,0.38,0.08,0.59-0.02c5.58-2.86,11.17-5.71,16.75-8.57C43.87,32,43.96,31.94,44.12,31.85z"/>
</g>
</svg>
