<?xml version="1.0" encoding="utf-8"?>
<!-- Generator: Adobe Illustrator 24.2.3, SVG Export Plug-In . SVG Version: 6.00 Build 0)  -->
<svg version="1.1" id="Layer_1" xmlns="http://www.w3.org/2000/svg" xmlns:xlink="http://www.w3.org/1999/xlink" x="0px" y="0px"
	 viewBox="0 0 54.01 47.06" style="enable-background:new 0 0 54.01 47.06;" xml:space="preserve">
<style type="text/css">
	.st0{fill:#FFFFFF;}
</style>
<g id="XMLID_73_">
	<path id="XMLID_673_" class="st0" d="M35.6,19.09c-0.01,7.62-6.2,13.76-13.86,13.75c-7.63-0.01-13.75-6.18-13.73-13.86
		c0.02-7.65,6.22-13.73,13.97-13.71C29.45,5.29,35.61,11.54,35.6,19.09z M21.77,18.48c-2.56,0-5.11,0-7.67,0
		c-0.13,0-0.29-0.05-0.38,0.01c-0.2,0.15-0.46,0.34-0.49,0.54c-0.03,0.17,0.21,0.43,0.39,0.56c0.12,0.09,0.35,0.06,0.54,0.06
		c5.08,0,10.17,0,15.25,0c0.18,0,0.37,0,0.55-0.05c0.3-0.08,0.47-0.33,0.38-0.61c-0.07-0.2-0.29-0.36-0.48-0.5
		c-0.08-0.06-0.25-0.01-0.38-0.01C26.91,18.48,24.34,18.48,21.77,18.48z M30.36,23.85c0-0.5,0.01-0.99,0-1.49
		c-0.01-0.48-0.2-0.69-0.66-0.69c-1.01-0.01-2.01-0.01-3.02,0c-0.46,0.01-0.68,0.23-0.68,0.69c-0.01,1.01-0.01,2.01,0,3.02
		c0,0.43,0.22,0.66,0.65,0.67c1.02,0.02,2.04,0.01,3.06,0c0.45-0.01,0.64-0.22,0.65-0.66C30.37,24.87,30.36,24.36,30.36,23.85z
		 M21.8,12.09c-0.52,0-1.05,0-1.57,0c-0.4,0-0.62,0.23-0.62,0.6c-0.02,1.05-0.02,2.1,0,3.15c0.01,0.38,0.22,0.6,0.62,0.61
		c1.04,0,2.07,0.01,3.11,0c0.42,0,0.63-0.2,0.63-0.62c0.01-1.04,0.01-2.07,0-3.11c0-0.43-0.21-0.62-0.63-0.63
		C22.82,12.08,22.31,12.09,21.8,12.09z M17.57,14.28c0-0.51,0.01-1.02,0-1.53c-0.01-0.46-0.2-0.65-0.65-0.65
		c-1.02-0.01-2.04-0.01-3.06,0c-0.43,0-0.65,0.22-0.66,0.66c-0.01,1.01-0.01,2.01,0,3.02c0,0.46,0.23,0.67,0.68,0.68
		c1.01,0.01,2.01,0.01,3.02,0c0.47,0,0.66-0.2,0.66-0.68C17.58,15.27,17.57,14.77,17.57,14.28z M18.62,24.88c-1.55,0-3.09,0-4.64,0
		c-0.49,0-0.78,0.22-0.77,0.59c0.01,0.36,0.28,0.59,0.74,0.59c3.09,0,6.19,0,9.28,0c0.48,0,0.73-0.2,0.73-0.58
		c0.01-0.4-0.23-0.59-0.75-0.59C21.68,24.88,20.15,24.88,18.62,24.88z M18.55,22.84c1.56,0,3.12,0,4.68,0
		c0.49,0,0.72-0.19,0.73-0.57c0-0.38-0.24-0.6-0.71-0.6c-3.11,0-6.22,0-9.32,0c-0.45,0-0.73,0.25-0.72,0.61
		c0.01,0.35,0.29,0.57,0.75,0.57C15.49,22.85,17.02,22.84,18.55,22.84z M28.15,14.85c0.52,0,1.05,0.01,1.57,0
		c0.42-0.01,0.64-0.21,0.64-0.57c0-0.36-0.22-0.57-0.64-0.57c-1.02-0.01-2.04-0.01-3.06,0c-0.41,0-0.66,0.22-0.67,0.55
		c-0.01,0.35,0.25,0.59,0.67,0.6C27.16,14.85,27.66,14.85,28.15,14.85z"/>
	<path id="XMLID_672_" class="st0" d="M34.36,35.26c1.21-1.21,2.42-2.41,3.65-3.64c0.06,0.06,0.16,0.13,0.25,0.22
		c2,2,4.01,3.99,5.99,6c0.74,0.75,1.16,1.63,0.81,2.7c-0.63,1.9-2.8,2.56-4.25,1.19C38.61,39.63,36.51,37.43,34.36,35.26z"/>
	<path id="XMLID_671_" class="st0" d="M32.35,35.48c-0.45-0.45-0.91-0.91-1.34-1.33c1.94-1.94,3.9-3.91,5.84-5.85
		c0.41,0.42,0.88,0.89,1.33,1.35C36.26,31.57,34.3,33.54,32.35,35.48z"/>
	<path id="XMLID_670_" class="st0" d="M31.15,32.04c-0.21-0.21-0.46-0.46-0.74-0.74c1.41-0.99,2.62-2.18,3.65-3.65
		c0.25,0.31,0.47,0.59,0.66,0.82C33.58,29.61,32.36,30.83,31.15,32.04z"/>
	<path id="XMLID_564_" class="st0" d="M27.22,22.86c0.66,0,1.28,0,1.95,0c0,0.66,0,1.32,0,2c-0.65,0-1.28,0-1.95,0
		C27.22,24.2,27.22,23.55,27.22,22.86z"/>
	<path id="XMLID_563_" class="st0" d="M22.79,13.3c0,0.66,0,1.29,0,1.95c-0.67,0-1.31,0-1.98,0c0-0.65,0-1.28,0-1.95
		C21.46,13.3,22.1,13.3,22.79,13.3z"/>
	<path id="XMLID_562_" class="st0" d="M14.42,15.24c0-0.67,0-1.3,0-1.95c0.67,0,1.31,0,1.98,0c0,0.66,0,1.29,0,1.95
		C15.74,15.24,15.09,15.24,14.42,15.24z"/>
</g>
</svg>
