<?xml version="1.0" encoding="utf-8"?>
<!-- Generator: Adobe Illustrator 24.2.3, SVG Export Plug-In . SVG Version: 6.00 Build 0)  -->
<svg version="1.1" id="Layer_1" xmlns="http://www.w3.org/2000/svg" xmlns:xlink="http://www.w3.org/1999/xlink" x="0px" y="0px"
	 viewBox="0 0 54.01 47.06" style="enable-background:new 0 0 54.01 47.06;" xml:space="preserve">
<style type="text/css">
	.st0{fill:#FFFFFF;}
</style>
<g id="XMLID_72_">
	<path id="XMLID_597_" class="st0" d="M38.23,36.29c0,0.35,0,0.64,0,0.97c-0.2,0-0.37,0-0.54,0c-9.15,0-18.3,0-27.45,0
		c-4.65,0-8.2-3.87-7.8-8.49c0.3-3.48,3.07-6.4,6.54-6.91c0.14-0.02,0.28-0.06,0.46-0.11c-0.62-3.24-0.05-6.23,1.87-8.92
		c1.42-1.99,3.33-3.35,5.65-4.1c4.6-1.49,10.1,0.17,13.02,4.98c2.86-1.09,5.63-0.93,8.21,0.77c2.58,1.7,3.83,4.18,3.97,7.26
		c4.11-0.1,7.07,1.61,8.36,5.61c0.84,2.61,0.21,5.03-1.55,7.15c-0.02-0.71-0.13-1.39,0.21-2.1c2-4.18-0.67-9.01-5.29-9.58
		c-0.87-0.11-1.77-0.02-2.73-0.02c0.13-3.13-0.84-5.71-3.45-7.45c-2.6-1.74-5.35-1.72-8.16-0.35c-1.42-2.73-3.55-4.6-6.51-5.42
		c-2.11-0.59-4.21-0.5-6.27,0.28c-2.56,0.97-4.44,2.71-5.62,5.18c-1.17,2.45-1.24,4.99-0.48,7.6c-0.7,0.1-1.34,0.15-1.96,0.28
		c-3.12,0.66-5.39,3.52-5.31,6.67c0.08,3.29,2.42,6.06,5.6,6.59c0.51,0.08,1.03,0.11,1.54,0.11c9.02,0.01,18.04,0,27.06,0
		C37.81,36.29,38,36.29,38.23,36.29z"/>
	<path id="XMLID_589_" class="st0" d="M39.26,32.44c1.28,0,2.53,0,3.81,0c0,1.27,0,2.52,0,3.81c-1.25,0-2.51,0-3.81,0
		C39.26,35,39.26,33.74,39.26,32.44z M42.11,33.42c-0.67,0-1.29,0-1.89,0c0,0.64,0,1.25,0,1.87c0.64,0,1.26,0,1.89,0
		C42.11,34.66,42.11,34.05,42.11,33.42z"/>
	<path id="XMLID_586_" class="st0" d="M44.09,32.44c1.28,0,2.53,0,3.81,0c0,1.27,0,2.53,0,3.82c-1.27,0-2.53,0-3.81,0
		C44.09,34.99,44.09,33.74,44.09,32.44z M45.05,35.29c0.66,0,1.27,0,1.88,0c0-0.65,0-1.27,0-1.88c-0.64,0-1.25,0-1.88,0
		C45.05,34.04,45.05,34.65,45.05,35.29z"/>
	<path id="XMLID_583_" class="st0" d="M43.07,37.29c0,1.27,0,2.52,0,3.81c-1.26,0-2.52,0-3.82,0c0-1.26,0-2.52,0-3.81
		C40.53,37.29,41.79,37.29,43.07,37.29z M42.11,38.25c-0.66,0-1.27,0-1.89,0c0,0.64,0,1.26,0,1.88c0.65,0,1.26,0,1.89,0
		C42.11,39.49,42.11,38.89,42.11,38.25z"/>
	<path id="XMLID_580_" class="st0" d="M47.92,37.29c0,1.29,0,2.54,0,3.81c-1.27,0-2.52,0-3.81,0c0-1.25,0-2.52,0-3.81
		C45.35,37.29,46.62,37.29,47.92,37.29z M46.95,38.25c-0.66,0-1.27,0-1.89,0c0,0.64,0,1.26,0,1.88c0.65,0,1.26,0,1.89,0
		C46.95,39.49,46.95,38.88,46.95,38.25z"/>
</g>
</svg>
