<?xml version="1.0" encoding="utf-8"?>
<!-- Generator: Adobe Illustrator 19.2.1, SVG Export Plug-In . SVG Version: 6.00 Build 0)  -->
<svg version="1.1" id="Icon" xmlns="http://www.w3.org/2000/svg" xmlns:xlink="http://www.w3.org/1999/xlink" x="0px" y="0px"
	 viewBox="0 0 109 133.2" style="enable-background:new 0 0 109 133.2;" xml:space="preserve">
<title>6.Infrastructure</title>
<g>
	<polygon points="24.8,68.8 24.8,76.2 29.6,76.2 29.6,68.8 	"/>
	<polygon points="24.8,83.1 24.8,90.4 29.6,90.4 29.6,83.1 	"/>
	<polygon points="24.8,97.3 24.8,104.6 29.6,104.6 29.6,97.3 	"/>
	<polygon points="24.8,54.5 24.8,61.8 29.6,61.8 29.6,54.5 	"/>
	<polygon points="36.1,111.5 36.1,118.8 40.9,118.8 40.9,111.5 	"/>
	<polygon points="24.8,40.2 24.8,47.6 29.6,47.6 29.6,40.2 	"/>
	<rect x="13.5" y="40.2" width="4.8" height="7.3"/>
	<rect x="13.5" y="97.3" width="4.8" height="7.3"/>
	<rect x="13.5" y="83.1" width="4.8" height="7.3"/>
	<rect x="13.5" y="111.5" width="4.8" height="7.3"/>
	<polygon points="24.8,111.5 24.8,118.8 29.6,118.8 29.6,111.5 	"/>
	<polygon points="36.1,97.3 36.1,104.6 40.9,104.6 40.9,97.3 	"/>
	<rect x="13.5" y="54.5" width="4.8" height="7.3"/>
	<rect x="13.5" y="68.8" width="4.8" height="7.3"/>
	<rect x="59.1" y="68.7" width="4.8" height="7.3"/>
	<polygon points="70.4,76 75.3,76 75.3,76 75.3,68.7 70.4,68.7 	"/>
	<polygon points="70.4,90.3 75.2,90.3 75.3,90.3 75.3,82.9 70.4,82.9 	"/>
	<rect x="81.7" y="111.5" width="4.8" height="7.3"/>
	<rect x="81.7" y="82.9" width="4.8" height="7.3"/>
	<rect x="81.7" y="97.3" width="4.8" height="7.3"/>
	<rect x="81.7" y="68.7" width="4.8" height="7.3"/>
	<polygon points="70.4,104.6 75.2,104.6 75.3,104.6 75.3,97.3 70.4,97.3 	"/>
	<polygon points="36.1,40.2 36.1,47.6 40.9,47.6 40.9,40.2 	"/>
	<polygon points="36.1,54.5 36.1,61.8 40.9,61.8 40.9,54.5 	"/>
	<polygon points="36.1,83.1 36.1,90.4 40.9,90.4 40.9,83.1 	"/>
	<polygon points="36.1,68.8 36.1,76.2 40.9,76.2 40.9,68.8 	"/>
	<rect x="59.1" y="111.5" width="4.8" height="7.3"/>
	<polygon points="70.4,118.9 75.2,118.9 75.3,118.9 75.3,111.5 70.4,111.5 	"/>
	<rect x="59.1" y="82.9" width="4.8" height="7.3"/>
	<rect x="59.1" y="97.3" width="4.8" height="7.3"/>
	<path d="M107.1,12.6h-0.6L93.8,3l-0.1-1.3c-0.1-1-0.9-1.7-1.9-1.7S90,0.7,89.9,1.7v0.5L54.4,12.6h-0.1h-0.1l0,0
		c-0.4,0.1-0.7,0.3-1,0.6c0,0,0,0,0,0.1c-0.1,0.1-0.2,0.3-0.2,0.5v0.1c0,0.2-0.1,0.3-0.1,0.5l0,0c0,1,0.9,1.9,1.9,1.9h13.7V29h-1.7
		c-2.4,0-4.4,2-4.4,4.4v3.9c0,2.4,2,4.4,4.4,4.4H74c2.4,0,4.4-2,4.4-4.4v-3.9c0-2.4-2-4.4-4.4-4.4h-1.7V16.4h16.2l-3.3,37.4H54.4
		V30.1V30c0-2.4-2-4.3-4.4-4.3H4.4H4.3c-2.4,0-4.3,2-4.3,4.4v98.7v0.1c0,2.4,2,4.3,4.4,4.3h91.2h0.1c2.4,0,4.3-2,4.3-4.4V58.1V58
		c0-1.6-0.9-2.9-2.1-3.7l-3.1-38h10.5c0.4,0.2,0.9,0.1,1.3,0h0.4c1.1,0,1.9-0.9,1.9-1.9S108.1,12.6,107.1,12.6z M74.7,33.5v3.8
		c0,0.4-0.3,0.6-0.6,0.6h-7.2c-0.4,0-0.6-0.3-0.6-0.6v-3.9c0-0.4,0.3-0.6,0.6-0.6l0,0h3.6l0,0H74C74.4,32.9,74.7,33.1,74.7,33.5z
		 M91.7,24.3l2.4,29.5H89L91.7,24.3z M96.2,128.8C96.2,128.9,96.2,128.9,96.2,128.8c0,0.4-0.3,0.6-0.6,0.6H4.4l0,0
		c-0.3,0-0.6-0.3-0.5-0.6V30.1l0,0c0-0.3,0.3-0.6,0.6-0.5H50l0,0c0.3,0,0.6,0.3,0.5,0.6v25.5l0,0c0,1,0.9,1.9,1.9,1.9h43.1l0,0
		c0.3,0,0.6,0.3,0.5,0.6v70.6H96.2z M68.1,12.6l21.4-6.2l-0.6,6.2H68.1z M94.2,8.1l6,4.5h-5.6L94.2,8.1z"/>
</g>
</svg>
