<?xml version="1.0" encoding="utf-8"?>
<!-- Generator: Adobe Illustrator 19.2.1, SVG Export Plug-In . SVG Version: 6.00 Build 0)  -->
<svg version="1.1" id="Icon" xmlns="http://www.w3.org/2000/svg" xmlns:xlink="http://www.w3.org/1999/xlink" x="0px" y="0px"
	 viewBox="0 0 141.7 141.7" style="enable-background:new 0 0 141.7 141.7;" xml:space="preserve">
<title>7.Society</title>
<path d="M140.9,34.1c-1.8-3-5.8-4-8.8-2.2c-0.1,0-0.1,0.1-0.2,0.1l-6.1,3.4c-2.7,1.5-5.3,3-8,4.5l-2.4-0.2c5.2-2.3,7.5-8.5,5.2-13.6
	s-8.5-7.5-13.6-5.2s-7.5,8.5-5.2,13.6c1,2.3,2.9,4.1,5.2,5.2l-2.4,0.2c-2.7-1.5-5.3-3-8-4.5L90.5,32c-3-1.9-7-1-8.9,2
	c0,0.1-0.1,0.1-0.1,0.2c-1.5,2.6-1.1,6.6,3.1,9l7.9,4.5L92,47.9l-6.1,3.4c-2.7,1.5-5.3,3-8,4.5l-2.4-0.2c5.2-2.3,7.5-8.5,5.2-13.6
	s-8.5-7.5-13.6-5.2s-7.5,8.5-5.2,13.6c1,2.3,2.9,4.1,5.2,5.2l-2.4,0.2c-2.7-1.5-5.3-3-8-4.5l-6.1-3.4c-0.3-0.2-0.6-0.3-0.9-0.4
	l7.6-4.3c4.2-2.5,4.5-6.5,3-9.1c-1.8-3-5.8-4-8.8-2.2c-0.1,0-0.1,0.1-0.2,0.1l-6.1,3.4c-2.7,1.5-5.3,3-8,4.5l-2.4-0.2
	c5.2-2.3,7.5-8.5,5.2-13.6s-8.5-7.5-13.6-5.2s-7.5,8.5-5.2,13.6c1,2.3,2.9,4.1,5.2,5.2L24,39.9c-2.7-1.5-5.3-3-8-4.5L10,32
	c-3-1.9-7-1-8.9,2c0,0.1-0.1,0.1-0.1,0.2c-1.5,2.6-1.1,6.6,3.1,9l14.4,8.2L18,99.5c0,3.7,3.8,6.4,7.3,6.4c2.9-3.1,7.7-3.2,10.7-0.3
	c0.1,0.1,0.2,0.2,0.3,0.3c2.1,0,4-0.9,5.5-2.4c1.1-1,1.7-2.5,1.8-4l-0.5-41.6c0.5,0.5,1.1,0.9,1.7,1.2l14.4,8.2l-0.5,48.1
	c0,3.7,3.8,6.4,7.3,6.4c2.9-3.1,7.7-3.2,10.7-0.3c0.1,0.1,0.2,0.2,0.3,0.3c2.1,0,4-0.9,5.5-2.4c1.1-1,1.7-2.5,1.8-4l-0.6-48.1
	L98,59.2c0.3-0.2,0.6-0.4,0.9-0.6l-0.4,41c0,3.7,3.8,6.4,7.3,6.4c2.9-3.1,7.7-3.2,10.7-0.3c0.1,0.1,0.2,0.2,0.3,0.3
	c2.1,0,4-0.9,5.5-2.4c1.1-1,1.7-2.5,1.8-4l-0.6-48.1l14.4-8.2C142.1,40.6,142.4,36.7,140.9,34.1z M104.3,30.3c0-3.8,3.1-6.9,6.9-6.9
	s6.9,3.1,6.9,6.9s-3.1,6.9-6.9,6.9l0,0C107.4,37.2,104.3,34.1,104.3,30.3L104.3,30.3z M64.4,46.2c0-3.8,3.1-6.9,6.9-6.9
	s6.9,3.1,6.9,6.9s-3.1,6.9-6.9,6.9l0,0C67.5,53.1,64.4,50,64.4,46.2L64.4,46.2z M23.7,30.3c0-3.8,3.1-6.9,6.9-6.9s6.9,3.1,6.9,6.9
	s-3.1,6.9-6.9,6.9l0,0C26.8,37.2,23.7,34.1,23.7,30.3z M39.9,99.5c0,0.6-0.3,1.2-0.8,1.6c-0.8,0.8-1.9,1.3-3,1.3
	c-1.6,0-3.7-1.3-3.8-2.8c0-0.1,0-0.1,0-0.2s0-0.1,0-0.2V71.9c0-1-0.8-1.7-1.7-1.7c-0.9,0-1.7,0.8-1.7,1.7v27.5c0,0,0,0.1,0,0.2
	c-0.1,1.3-2,2.8-3.8,2.8s-3.8-1.4-3.8-2.9l0.5-49.1c0-0.6-0.3-1.2-0.9-1.5L5.6,40.2c-2.4-1.3-2.5-3.1-1.8-4.3s2.3-2,4.3-0.9l6.1,3.4
	c2.8,1.6,5.6,3.1,8.4,4.7c0.2,0.1,0.4,0.2,0.6,0.2c0.1,0,0.3,0,0.4,0c4.6-0.4,9.2-0.4,13.7,0c0.2,0,0.3,0,0.5,0s0.4-0.1,0.5-0.2
	c2.8-1.6,5.6-3.1,8.4-4.7L53,35c2-1.1,3.6-0.4,4.3,0.8s0.6,3-1.8,4.4l-15.3,8.7c-0.6,0.3-0.9,0.9-0.9,1.5L39.9,99.5z M96.2,56.1
	l-15.3,8.7c-0.6,0.3-0.9,0.9-0.9,1.5l0.6,49.1c0,0.6-0.3,1.2-0.8,1.6c-0.8,0.8-1.9,1.3-3,1.3c-1.6,0-3.7-1.3-3.8-2.8
	c0,0,0-0.1,0-0.2s0-0.1,0-0.2V87.8c0-1-0.8-1.7-1.7-1.7c-0.9,0-1.7,0.8-1.7,1.7v27.5c0,0,0,0.1,0,0.2c-0.1,1.3-2,2.8-3.8,2.8
	s-3.8-1.4-3.8-2.9l0.5-49.1c0-0.6-0.3-1.2-0.9-1.5l-15.3-8.7c-2.4-1.3-2.5-3.1-1.8-4.3s2.3-2,4.3-0.9l6.2,3.4
	c2.8,1.6,5.6,3.1,8.4,4.7c0.2,0.1,0.4,0.2,0.6,0.2c0.1,0,0.3,0,0.4,0c4.6-0.4,9.2-0.4,13.7,0c0.2,0,0.3,0,0.5,0s0.4-0.1,0.5-0.2
	c2.8-1.6,5.6-3.1,8.4-4.7l6.1-3.4c2-1.1,3.6-0.4,4.3,0.8S98.6,54.7,96.2,56.1L96.2,56.1z M136.1,40.2l-15.3,8.7
	c-0.6,0.3-0.9,0.9-0.9,1.5l0.6,49.1c0,0.6-0.3,1.2-0.8,1.6c-0.8,0.8-1.9,1.3-3,1.3c-1.6,0-3.7-1.3-3.8-2.8c0,0,0-0.1,0-0.2
	s0-0.1,0-0.2V71.9c0-1-0.8-1.7-1.7-1.7c-0.9,0-1.7,0.8-1.7,1.7v27.5c0,0,0,0.1,0,0.2c-0.1,1.3-2,2.8-3.8,2.8s-3.8-1.4-3.8-2.9
	l0.5-49.1c0-0.6-0.3-1.2-0.9-1.5l-15.3-8.7c-2.4-1.3-2.5-3.1-1.8-4.3s2.3-2,4.3-0.9l6.2,3.4c2.8,1.6,5.6,3.1,8.4,4.7
	c0.2,0.1,0.4,0.2,0.6,0.2c0.1,0,0.3,0,0.4,0c4.6-0.4,9.2-0.4,13.7,0c0.2,0,0.3,0,0.5,0s0.4-0.1,0.5-0.2c2.8-1.6,5.6-3.1,8.4-4.7
	l6.1-3.4c2-1.1,3.6-0.4,4.3,0.8S138.5,38.8,136.1,40.2L136.1,40.2z"/>
</svg>
