<?xml version="1.0" encoding="utf-8"?>
<!-- Generator: Adobe Illustrator 19.2.1, SVG Export Plug-In . SVG Version: 6.00 Build 0)  -->
<svg version="1.1" id="Icon" xmlns="http://www.w3.org/2000/svg" xmlns:xlink="http://www.w3.org/1999/xlink" x="0px" y="0px"
	 viewBox="0 0 141.7 141.7" style="enable-background:new 0 0 141.7 141.7;" xml:space="preserve">
<title>5.Finance</title>
<path d="M96.3,60.9c-3.3,0-6.6,0.4-9.7,1.3V41.5h18.9c1.2,0,2.2-1,2.2-2.2v-14c0-1.2-1-2.2-2.2-2.2H93.9V11.3c0-1.2-1-2.2-2.2-2.2
	H19.1c-1.2,0-2.2,1-2.2,2.2v14c0,1.2,1,2.2,2.2,2.2h11.5v9.7H11.7c-1.2,0-2.2,1-2.2,2.2v84.2c0,1.2,1,2.2,2.2,2.2h58
	c14.9,14.7,38.9,14.6,53.6-0.3s14.6-38.9-0.3-53.6C115.9,64.8,106.3,60.9,96.3,60.9z M13.9,97.6h44.5c0,0.4,0,0.8,0,1.1
	c0,2.9,0.3,5.8,1,8.6H13.9V97.6z M58.8,93.3H13.9v-9.7h47.7C60.2,86.7,59.3,90,58.8,93.3L58.8,93.3z M63.8,79.3H13.9v-9.7h58.3
	C68.9,72.3,66.1,75.6,63.8,79.3L63.8,79.3z M78.7,65.3H13.9v-9.7h68.3v8.1l0,0C81,64.1,79.8,64.7,78.7,65.3L78.7,65.3z M21.3,13.4
	h68.3v9.7H21.3C21.3,23.1,21.3,13.4,21.3,13.4z M34.9,27.4h68.3v9.7H84.7h-0.2h-0.2H34.9V27.4z M82.2,41.4v9.7H13.9v-9.6L82.2,41.4
	L82.2,41.4z M13.9,111.6h46.8c1.3,3.5,3,6.7,5.2,9.7h-52L13.9,111.6L13.9,111.6z M96.3,132.2c-18.5,0-33.5-15-33.5-33.5
	s15-33.5,33.5-33.5s33.5,15,33.5,33.5C129.9,117.2,114.8,132.3,96.3,132.2L96.3,132.2L96.3,132.2z"/>
<path d="M96.5,96.6L96.5,96.6c-5.2,0-9.1-1.5-10.4-4c-0.7-1.3-0.6-2.8,0.3-4c1.4-2,4.9-3.9,10.9-3.2c3.1,0.5,6.1,1.3,9,2.4l0.6,0.2
	c1.1,0.4,2.4-0.2,2.7-1.4c0.4-1.1-0.2-2.4-1.4-2.7l0,0l-0.6-0.2c-3-1.1-6-1.9-9.1-2.5v-7c0-1.2-1-2.2-2.2-2.2s-2.2,1-2.2,2.2V81
	c-5.1,0.2-9.2,2-11.4,5.2c-1.8,2.5-2,5.8-0.5,8.5c2.1,4,7.3,6.3,14.1,6.3h0.2c5,0,8.7,1.5,10,4c0.7,1.3,0.6,2.9-0.3,4.1
	c-1.7,2.5-5.7,3.7-10.8,3.1c-3-0.5-6-1.3-8.9-2.3l-0.7-0.2c-1.1-0.4-2.4,0.2-2.7,1.4c-0.4,1.1,0.2,2.4,1.4,2.7l0.7,0.2
	c2.9,1.1,5.9,1.9,8.9,2.4v7.1c0,1.2,1,2.2,2.2,2.2s2.2-1,2.2-2.2l0,0v-6.8c5.1-0.1,9.2-2,11.4-5.1c1.8-2.5,2-5.8,0.5-8.5
	C108.2,98.9,103.2,96.6,96.5,96.6z"/>
</svg>
