<?xml version="1.0" encoding="utf-8"?>
<!-- Generator: Adobe Illustrator 19.2.1, SVG Export Plug-In . SVG Version: 6.00 Build 0)  -->
<svg version="1.1" id="Icon" xmlns="http://www.w3.org/2000/svg" xmlns:xlink="http://www.w3.org/1999/xlink" x="0px" y="0px"
	 viewBox="0 0 130.6 127.6" style="enable-background:new 0 0 130.6 127.6;" xml:space="preserve">
<title>2.Economy</title>
<path d="M95.6,57.5V2.2c0-1.2-1-2.2-2.2-2.2l0,0H72.6c-1.2,0-2.2,0.9-2.2,2.1c0,0,0,0,0,0v65.9c-3.5,3.6-6.2,8-7.9,12.7V27.6
	c0-1.2-1-2.2-2.2-2.2l0,0H39.5c-1.2,0-2.2,1-2.2,2.2c0,0,0,0,0,0v75.8h-7.9V51c0-1.2-1-2.2-2.2-2.2l0,0H6.4c-1.2,0-2.2,1-2.2,2.2
	v52.4h-2c-1.2,0-2.2,1-2.2,2.2c0,1.2,1,2.2,2.2,2.2H64c8.4,17.4,29.4,24.8,46.8,16.4s24.8-29.4,16.4-46.8
	C121.3,65.2,109.1,57.5,95.6,57.5z M91.3,4.3v53.4c-6,0.7-11.7,3-16.5,6.6V4.3L91.3,4.3L91.3,4.3z M41.6,29.8h16.5v73.6H41.6V29.8z
	 M8.5,53.1h16.5v50.3H8.5V53.1z M95.5,123.2c-17,0-30.7-13.8-30.7-30.7s13.8-30.7,30.7-30.7s30.7,13.8,30.7,30.7
	C126.2,109.4,112.5,123.2,95.5,123.2L95.5,123.2z"/>
<path d="M110.1,77.7c0-0.1,0-0.2-0.1-0.3c0,0,0-0.1,0-0.1l0,0c-0.1-0.3-0.3-0.5-0.5-0.7l-0.1-0.1c-0.1-0.1-0.2-0.1-0.2-0.2l0,0
	c-0.3-0.2-0.6-0.3-0.9-0.3h-0.3H84.6c-1.2,0-2.2,1-2.2,2.2c0,1.2,1,2.2,2.2,2.2l0,0h17.5c-3,3-7.7,7.8-15.1,15.6
	c-3.5,3.8-6.6,7-7.7,8.1c-0.9,0.8-0.9,2.2-0.1,3.1s2.2,0.9,3.1,0.1c1.2-1.2,4.2-4.3,7.9-8.2c4.3-4.6,11.4-12,15.5-16.1v18.6
	c0,1.2,1,2.2,2.2,2.2c1.2,0,2.2-1,2.2-2.2V78.2C110.2,78,110.1,77.9,110.1,77.7z"/>
</svg>
