<?xml version="1.0" encoding="utf-8"?>
<!-- Generator: Adobe Illustrator 19.2.1, SVG Export Plug-In . SVG Version: 6.00 Build 0)  -->
<svg version="1.1" id="Icon" xmlns="http://www.w3.org/2000/svg" xmlns:xlink="http://www.w3.org/1999/xlink" x="0px" y="0px"
	 viewBox="0 0 141.7 141.7" style="enable-background:new 0 0 141.7 141.7;" xml:space="preserve">
<title>8.Technology</title>
<path d="M129.5,119.3H85.3c-0.5,0-1,0.2-1.3,0.5l-3.4,3.4H61.1l-3.4-3.4c-0.3-0.3-0.8-0.5-1.3-0.5H12.3c-1,0-1.9,0.8-1.9,1.9v3.1
	c0,0.4,0.1,0.8,0.4,1.1l6.7,8.5c0.4,0.4,0.9,0.7,1.5,0.7h103.9c0.6,0,1.1-0.3,1.5-0.7l6.7-8.5c0.3-0.3,0.4-0.7,0.4-1.1v-3.1
	C131.3,120.1,130.5,119.3,129.5,119.3z M127.6,123.6l-5.7,7.3H19.8l-5.7-7.3V123h41.5l3.4,3.4c0.3,0.3,0.8,0.5,1.3,0.5h21.2
	c0.5,0,1-0.2,1.3-0.5l3.3-3.4h41.5L127.6,123.6L127.6,123.6z"/>
<path d="M63.8,106.5c-1,0-1.9,0.8-1.9,1.9v3.5c0.1,1,1,1.8,2,1.7c0.9-0.1,1.7-0.8,1.7-1.7v-3.5C65.7,107.4,64.9,106.5,63.8,106.5z"
	/>
<path d="M56.8,106.5c-1,0-1.9,0.8-1.9,1.9v3.5c0.1,1,1,1.8,2,1.7c0.9-0.1,1.7-0.8,1.7-1.7v-3.5C58.6,107.4,57.8,106.5,56.8,106.5z"
	/>
<path d="M70.9,106.5c-1,0-1.9,0.8-1.9,1.9v3.5c0.1,1,1,1.8,2,1.7c0.9-0.1,1.7-0.8,1.7-1.7v-3.5C72.7,107.4,71.9,106.5,70.9,106.5z"
	/>
<path d="M77.9,106.5c-1,0-1.9,0.8-1.9,1.9v3.5c0.1,1,1,1.8,2,1.7c0.9-0.1,1.7-0.8,1.7-1.7v-3.5C79.7,107.4,78.9,106.5,77.9,106.5z"
	/>
<path d="M84.9,106.5c-1,0-1.9,0.8-1.9,1.9v3.5c-0.1,1,0.7,1.9,1.7,2s1.9-0.7,2-1.7c0-0.1,0-0.2,0-0.3v-3.5
	C86.8,107.4,86,106.5,84.9,106.5z"/>
<path d="M63.8,17.8c1,0,1.9-0.8,1.9-1.9v-5.2h38.6c1-0.1,1.8-1,1.7-2c-0.1-0.9-0.8-1.7-1.7-1.7H63.8c-1,0-1.9,0.8-1.9,1.9v7
	C62,17,62.8,17.8,63.8,17.8L63.8,17.8z"/>
<path d="M86.8,74.1h8.7c1,0.1,1.9-0.7,2-1.7s-0.7-1.9-1.7-2c-0.1,0-0.2,0-0.3,0H84.9c-1,0-1.9,0.8-1.9,1.9v28.1
	c-0.1,1,0.7,1.9,1.7,2s1.9-0.7,2-1.7c0-0.1,0-0.2,0-0.3L86.8,74.1L86.8,74.1z"/>
<path d="M41,24.9h38.6V30c0.1,1,1,1.8,2,1.7c0.9-0.1,1.7-0.8,1.7-1.7v-7c0-1-0.8-1.9-1.9-1.9H41c-1,0-1.9,0.8-1.9,1.9
	C39.1,24,39.9,24.9,41,24.9L41,24.9z"/>
<path d="M58.6,68.7c0-1-0.8-1.9-1.9-1.9H37.4c-1-0.1-1.9,0.7-2,1.7s0.7,1.9,1.7,2c0.1,0,0.2,0,0.3,0h17.5v29.8c0.1,1,1,1.8,2,1.7
	c0.9-0.1,1.7-0.8,1.7-1.7L58.6,68.7L58.6,68.7z"/>
<path d="M23,24.9h1.8c1-0.1,1.8-1,1.7-2c-0.1-0.9-0.8-1.7-1.7-1.7H23c-1,0.1-1.8,1-1.7,2C21.3,24.1,22.1,24.8,23,24.9z"/>
<path d="M32,24.9h1.8c1-0.1,1.8-1,1.7-2c-0.1-0.9-0.8-1.7-1.7-1.7H32c-1-0.1-1.9,0.7-2,1.7s0.7,1.9,1.7,2
	C31.8,24.9,31.9,24.9,32,24.9z"/>
<path d="M111.5,10.8h1.8c1-0.1,1.8-1,1.7-2c-0.1-0.9-0.8-1.7-1.7-1.7h-1.8c-1-0.1-1.9,0.7-2,1.7s0.7,1.9,1.7,2
	C111.3,10.8,111.4,10.8,111.5,10.8z"/>
<path d="M120.5,10.8h1.8c1-0.1,1.8-1,1.7-2c-0.1-0.9-0.8-1.7-1.7-1.7h-1.8c-1,0.1-1.8,1-1.7,2C118.8,10,119.6,10.7,120.5,10.8z"/>
<path d="M20.1,113.8h29.3c1-0.1,1.8-1,1.7-2c-0.1-0.9-0.8-1.7-1.7-1.7H21.9V57.2c0-3.3,2.7-6,6-6H62v49.1c0.1,1,1,1.8,2,1.7
	c0.9-0.1,1.7-0.8,1.7-1.7V51.2H69v49.1c0.1,1,1,1.8,2,1.7c0.9-0.1,1.7-0.8,1.7-1.7V51.2H76v49.1c0.1,1,1,1.8,2,1.7
	c0.9-0.1,1.7-0.8,1.7-1.7V51.2h34.1c3.3,0,6,2.7,6,6V110H92.4c-1,0.1-1.8,1-1.7,2c0.1,0.9,0.8,1.7,1.7,1.7h29.3c1,0,1.9-0.8,1.9-1.9
	V57.2c0-5.3-4.3-9.7-9.7-9.7H79.8v-3.4c-0.1-1-1-1.8-2-1.7c-0.9,0.1-1.7,0.8-1.7,1.7v3.4h-3.3v-8.6h38.6c1-0.1,1.8-1,1.7-2
	c-0.1-0.9-0.8-1.7-1.7-1.7H70.9c-1,0-1.9,0.8-1.9,1.9v10.4h-3.3v-14c-0.1-1-1-1.8-2-1.7c-0.9,0.1-1.7,0.8-1.7,1.7v14H28
	c-5.3,0-9.7,4.3-9.7,9.7v54.7C18.3,112.9,19.1,113.7,20.1,113.8z"/>
</svg>
