<?xml version="1.0" encoding="utf-8"?>
<!-- Generator: Adobe Illustrator 19.2.1, SVG Export Plug-In . SVG Version: 6.00 Build 0)  -->
<svg version="1.1" id="Icon" xmlns="http://www.w3.org/2000/svg" xmlns:xlink="http://www.w3.org/1999/xlink" x="0px" y="0px"
	 viewBox="0 0 141.7 141.7" style="enable-background:new 0 0 141.7 141.7;" xml:space="preserve">
<title>4.Environment</title>
<path d="M87,100.8c5.2,5.2,13.3,6.2,19.5,2.4c1-0.7,2-1.5,2.8-2.4l1-0.9c0.6,0,1.2,0.1,1.7,0.1c5.7,0,11.1-2.3,15.1-6.3
	c7.2-7.3,8.3-18.6,2.6-27.1c6-6.5,5.5-16.6-1-22.6c-0.9-0.8-1.8-1.5-2.9-2.1c-0.4-5.1-2.6-9.9-6.2-13.5c-6.7-6.8-17.1-8.3-25.5-3.8
	c-0.9,0.5-1.8,1.1-2.7,1.7c-0.2-5-2.2-9.8-5.8-13.3C78.9,5.9,67.9,5.1,60,11c-0.1,0.1-0.2,0.2-0.3,0.3c-1.9,2.2-3.7,4.4-4.7,5.6
	c-4.1-0.5-8.3,0.6-11.6,3.2c-1.2,0.9-2.3,2-3.2,3.2c-0.5-0.2-1-0.4-1.5-0.5C26,19,12.6,26.2,8.8,38.8c-0.7,2.3-1,4.7-1,7.1
	c0,3.8,0.9,7.6,2.7,11c1.2,2.3,2.8,4.5,4.7,6.3v0.2c-0.3,1.3-0.4,2.6-0.4,3.9c0,4.9,1.9,9.6,5.2,13.1c2.3,2.4,5.1,4.2,8.3,5.1
	c0.6,4.1,2.4,7.9,5.4,10.9c5.6,5.6,14.1,7.2,21.3,3.9l-2.6,24.3c-14.9,0.9-28.4,2.9-38.2,5.8c-1.2,0.3-1.8,1.5-1.5,2.7
	s1.5,1.8,2.7,1.5c12.8-3.7,32-6,52.5-6.2H68h3.2c22,0,42.3,2.3,56,6.2c1.2,0.3,2.4-0.3,2.7-1.5s-0.3-2.4-1.5-2.7
	c-10.5-3-24.8-5.1-40.7-5.9l-4.2-24.2l1.6-1.8C85.7,99.3,86.3,100.1,87,100.8z M36.6,93.4c-2.6-2.6-4.1-6-4.3-9.7
	c-0.1-1-0.8-1.8-1.7-2c-2.9-0.6-5.6-2.1-7.6-4.3c-2.6-2.7-4-6.4-4-10.1c0-1,0.1-2,0.3-3c0.1-0.4,0.2-0.8,0.3-1.2
	c0.2-0.8,0-1.7-0.7-2.3c-8.3-7.1-9.2-19.6-2.1-27.9c0.3-0.4,0.6-0.7,1-1.1c5.1-5.2,12.6-7.1,19.5-5c0.9,0.3,1.8,0.6,2.7,1.1
	c1,0.5,2.3,0.1,2.8-0.9c0.8-1.4,1.8-2.6,3.1-3.6c2.7-2.1,6.1-2.9,9.4-2.1c1.3,0.3,1.9-0.5,2.8-1.6s2.7-3.4,4.6-5.5
	c6.1-4.4,14.6-3.8,19.9,1.6c2.9,2.9,4.5,6.9,4.5,11c-0.1,1.2-0.3,2.4-0.6,3.5c-0.3,1.2,0.5,2.3,1.6,2.6l0,0l0.6,0.2
	c0.8,0.2,1.7-0.1,2.2-0.7c3.3-4,8.1-6.3,13.3-6.3c4.6,0,9,1.8,12.2,5.1c3.1,3.2,4.9,7.4,5,11.9c0,0.8,0.5,1.6,1.3,1.9
	c5.8,2.8,8.4,9.7,5.6,15.6c-0.7,1.5-1.7,2.8-3,3.9c-0.9,0.8-1,2.1-0.3,3c5.5,6.8,5,16.7-1.1,22.9c-3.1,3.1-7.2,4.9-11.5,5
	c-0.3-0.2-0.6-0.4-1-0.5s-0.9-0.1-1.3,0l-1,0.3c-0.8,0.2-1.5,0.8-2.9,2.1c-0.7,0.7-1.4,1.3-2.2,1.9c-4.6,2.8-10.4,2.1-14.2-1.7
	c-0.9-0.9-1.6-1.9-2.1-3l8-13.3l0.1-0.2l9.8-20.1l0.1-0.2c1-2.5-0.2-5.3-2.6-6.3s-5.2,0.1-6.2,2.5L83,77.7l-10,7.4l-8.2-16.3
	L73.2,51c1.2-2.4,0.3-5.3-2-6.5c-2.2-1.2-5-0.4-6.3,1.7l-8.3,13L39.9,43.5c-1.9-1.8-5-1.7-6.8,0.2s-1.7,4.9,0.1,6.7l14.5,18.2
	L53.4,91c0.1,0.8,0.4,1.9,1,3.8l0.2,0.7C48.8,99.1,41.4,98.2,36.6,93.4L36.6,93.4z M71.2,124h-3.1h-0.2c-3.8,0-7.6,0.2-11.2,0.3
	l2.7-25.6c0.1-0.3,0.1-0.6,0.1-0.9l0,0c-0.2-1.4-0.6-2.8-1-4.1c-0.3-1.1-0.7-2.6-0.8-3.1c0-0.1,0-0.3-0.1-0.4l-5.8-23
	c-0.1-0.3-0.2-0.6-0.4-0.8L36.5,47.7c-0.1-0.1-0.1-0.2-0.2-0.2c-0.2-0.2-0.2-0.5,0-0.7c0.1-0.1,0.2-0.2,0.4-0.2c0.1,0,0.2,0,0.3,0.1
	l17.8,16.9c0.4,1.1,1.7,1.7,2.8,1.3c0.4-0.2,0.8-0.5,1.1-0.9l9.9-15.5l0.1-0.1c0.1-0.2,0.4-0.3,0.7-0.2c0.2,0.1,0.3,0.4,0.2,0.7
	L69.3,49l-9,18.8c-0.3,0.6-0.3,1.3,0,1.9l9.8,19.5c0.5,1.1,1.8,1.5,2.9,1c0.1-0.1,0.2-0.1,0.3-0.2l12.5-9c0.2-0.1,0.4-0.3,0.5-0.5
	l14.4-20.9c0.1-0.1,0.2-0.3,0.2-0.5c0-0.1,0.1-0.2,0.3-0.3c0.1,0,0.3,0,0.4,0s0.2,0.1,0.3,0.3c0,0.1,0,0.2,0,0.3l-9.7,19.9l-8.4,14
	l-4.2,4.8c-0.4,0.5-0.6,1.2-0.5,1.8l4.2,24.3C79.3,124.1,75.3,124,71.2,124z"/>
</svg>
