<?xml version="1.0" encoding="utf-8"?>
<!-- Generator: Adobe Illustrator 19.2.1, SVG Export Plug-In . SVG Version: 6.00 Build 0)  -->
<svg version="1.1" id="Icon" xmlns="http://www.w3.org/2000/svg" xmlns:xlink="http://www.w3.org/1999/xlink" x="0px" y="0px"
	 viewBox="0 0 141.7 141.7" style="enable-background:new 0 0 141.7 141.7;" xml:space="preserve">
<title>6.Health</title>
<path d="M131,21.8c-7.6-7.6-17.9-11.9-28.7-11.9c-26.5,0-29.6,14-31.4,22.4C69.1,23.9,66,9.9,39.5,9.9c-10.8,0-21.1,4.2-28.7,11.9
	C-3.1,35.7-3.6,53.4,9.4,74.4c0.6,1,1.9,1.3,2.9,0.7c1-0.6,1.3-1.9,0.7-2.9l0,0C1.1,53.1,1.4,37.1,13.8,24.7
	c6.8-6.9,16-10.7,25.7-10.7c23.2,0,25.6,11.1,27.4,19.2c0.6,2.9,1.1,5.2,2.6,6.7c0.8,0.8,2.1,0.8,2.9,0l0,0c1.4-1.5,1.9-3.8,2.6-6.7
	c1.7-8.1,4.1-19.2,27.4-19.2c9.7,0,18.9,3.8,25.8,10.7c7.1,7.1,10.2,15.4,9.4,24.7c-0.9,10-6.3,21.1-16,33.2h-24l-8.3-28
	c-0.3-1.1-1.4-1.8-2.5-1.5c-0.7,0.2-1.3,0.8-1.5,1.5c-5.4,18.4-9.8,30.1-15.8,46.1L63.6,84c-0.3-0.8-1.1-1.4-2-1.4h-11l-8.7-45
	c-0.2-1-1.1-1.7-2.1-1.7s-1.8,0.7-2,1.7l-7.5,44.9H2.1C1,82.5,0,83.4,0,84.6c0,1.1,0.9,2.1,2.1,2.1H32c1,0,1.8-0.7,2-1.7l6-35.3
	l6.9,35.4c0.2,1,1,1.7,2,1.7h11.3l7.3,20.7c0.3,0.8,1.1,1.4,1.9,1.4l0,0c0.9,0,1.6-0.5,1.9-1.3l1.8-4.8c5.4-14.3,9.5-25.2,14.1-40.2
	L94,85.3c0.3,0.9,1.1,1.5,2,1.5h22c-2.5,2.9-5.2,5.8-8.1,8.8c-11.2,11.1-23.3,21.1-36.2,30.1c-0.7,0.4-1.2,0.8-1.7,1.2
	s-0.9,0.7-1.2,0.8c-0.3-0.2-0.7-0.5-1.1-0.8c-0.6-0.4-1.2-0.9-2.1-1.5c-12.1-8.4-23.5-17.7-34-28c-0.8-0.8-2.2-0.8-3,0s-0.8,2.2,0,3
	l0,0c10.7,10.4,22.3,20,34.6,28.5c0.8,0.6,1.5,1,2,1.4c1.5,1.1,2.5,1.7,3.6,1.7s2.1-0.6,3.7-1.7c0.4-0.3,1-0.7,1.6-1.1
	c10.4-7.1,62.3-44.3,65.5-79.2C142.6,39.2,139,29.8,131,21.8z"/>
</svg>
