<?xml version="1.0" encoding="utf-8"?>
<!-- Generator: Adobe Illustrator 19.2.1, SVG Export Plug-In . SVG Version: 6.00 Build 0)  -->
<svg version="1.1" id="Icon" xmlns="http://www.w3.org/2000/svg" xmlns:xlink="http://www.w3.org/1999/xlink" x="0px" y="0px"
	 viewBox="0 0 141.7 141.7" style="enable-background:new 0 0 141.7 141.7;" xml:space="preserve">
<title>3.Education</title>
<path d="M137,36.1L77.3,8.3c-3.2-1.5-6.9-1.6-9.5-0.4L7.1,36.6c-1.7,0.9-2.8,2.7-2.7,4.7c0,2.2,1.2,4.3,3.3,5.3L18,51.2
	c-1.4,4.7-1.2,10.6-1,16.8c0.1,2.8,0.2,5.6,0.1,8.4c0,0.1,0,0.1,0,0.2c-4.6,0.9-7.5,5.4-6.6,10c0.6,2.9,2.7,5.3,5.6,6.3
	c-0.2,0.3-0.3,0.7-0.3,1c-0.2,13-5.3,23.9-13.3,28.4c-1,0.6-1.4,1.9-0.8,3c0.1,0.3,0.3,0.5,0.6,0.7l11.2,8.3c0.8,0.6,2,0.6,2.8-0.1
	c9-8.3,7.5-16,5.7-24.9c-1.2-5-1.8-10.1-1.8-15.3c0-0.2,0-0.5-0.1-0.7c4.6-0.7,7.8-5,7.1-9.6c-0.5-3.2-2.7-5.8-5.8-6.8
	c0-0.1,0-0.2,0-0.4c0-2.9,0-5.8-0.1-8.6C21.1,62.2,21,56.9,22,53l7.5,3.5c-0.2,0.3-0.3,0.8-0.3,1.2v24.9c0,12.6,19.2,22.5,43.7,22.5
	s43.8-9.9,43.8-22.5v-26c0-0.2,0-0.4-0.1-0.6l21-10c1.7-0.9,2.8-2.7,2.7-4.6C140.2,39.2,139,37.1,137,36.1z M14.7,129.6l-7.3-5.4
	c4.8-3.9,8.3-9.1,10.2-14.9l0.1,0.7C19.4,118,20.5,123.5,14.7,129.6L14.7,129.6z M23,84.8c0,2.3-1.8,4.1-4.1,4.1s-4.1-1.8-4.1-4.1
	s1.8-4.1,4.1-4.1l0,0C21.1,80.7,23,82.6,23,84.8L23,84.8z M112.4,82.6c0,9.9-18,18.2-39.4,18.2s-39.4-8.3-39.4-18.2V58.4l33.8,15.9
	c3.2,1.5,6.9,1.6,9.4,0.4l35.6-16.8L112.4,82.6L112.4,82.6z M135.7,42.1L74.9,70.8c-1.9,0.6-4,0.5-5.8-0.4L27.6,50.8L72,41.7
	c1.2-0.2,1.9-1.4,1.7-2.6s-1.4-1.9-2.6-1.7L21,47.8L9.4,42.5c-0.5-0.3-0.7-0.8-0.7-1.4c0-0.2,0-0.5,0.2-0.7l60.8-28.7
	c1.9-0.6,4-0.5,5.8,0.4l59.7,27.8c0.4,0.2,0.7,0.7,0.7,1.1C135.9,41.5,135.9,41.8,135.7,42.1z"/>
</svg>
