<?xml version="1.0" encoding="utf-8"?>
<!-- Generator: Adobe Illustrator 19.2.1, SVG Export Plug-In . SVG Version: 6.00 Build 0)  -->
<svg version="1.1" id="Icon" xmlns="http://www.w3.org/2000/svg" xmlns:xlink="http://www.w3.org/1999/xlink" x="0px" y="0px"
	 viewBox="0 0 141.7 101.7" style="enable-background:new 0 0 141.7 101.7;" xml:space="preserve">
<title>9.Transport</title>
<path d="M129.9,7c-4.4-4.5-10.4-7-16.7-7C95.9,0.3,78.1,0.3,53.4,0.2c-13.1,0-27.9-0.1-45.7-0.1C3.4,0.3,0,3.8,0,8.1v36.2l0,0v30.3
	c0.1,4.2,3.5,7.7,7.7,7.7H11c0.9,0,1.6-0.6,1.8-1.4C16,69.7,27.7,63.2,38.9,66.4c7,2,12.5,7.5,14.5,14.5c0.2,0.8,1,1.4,1.8,1.4h31.1
	c0.9,0,1.6-0.6,1.8-1.4c3.2-11.2,14.9-17.7,26.1-14.5c7,2,12.5,7.5,14.5,14.5c0.2,0.8,1,1.4,1.8,1.4h3.3c4.2-0.1,7.7-3.5,7.7-7.7
	V45.7C141.7,27.7,137.7,14.7,129.9,7z M7.7,4c17.8,0,32.6,0,45.7,0.1C78.1,4.1,96,4.2,113.2,3.9c5.3,0,10.3,2.1,13.9,5.9
	c6.5,6.4,10.2,17.7,10.7,32.7H94.2c0.3-0.3,0.5-0.8,0.5-1.2c0-2.7,0-30.7,0-34.9c0-1.1-0.9-1.9-1.9-1.9c-1.1,0-1.9,0.9-1.9,1.9l0,0
	c0,4.1,0,32.3,0,34.9c0,0.5,0.2,0.9,0.5,1.2H48.7c0.3-0.3,0.5-0.8,0.5-1.2c0-2.7,0-30.7,0-34.9c0-1.1-0.9-1.9-1.9-1.9
	c-1.1,0-1.9,0.9-1.9,1.9l0,0c0,4.2,0,32.2,0,34.9c0,0.5,0.2,0.9,0.5,1.3h-42V8.1C3.8,5.9,5.5,4.1,7.7,4L7.7,4z M134,78.6h-1.9
	c-4.6-13-18.9-19.8-31.9-15.2c-7.1,2.5-12.7,8.1-15.2,15.2H56.7c-4.6-13-18.9-19.8-31.9-15.2c-7.1,2.5-12.7,8.1-15.2,15.2H7.7
	c-2.1,0-3.9-1.7-3.9-3.9V46.3c21,0,118,0,134.1-0.1v28.4C137.9,76.8,136.2,78.5,134,78.6L134,78.6z"/>
<path d="M108.6,74.1c-7.6,0-13.8,6.2-13.8,13.8s6.2,13.8,13.8,13.8s13.8-6.2,13.8-13.8C122.4,80.3,116.2,74.1,108.6,74.1z
	 M108.6,97.9c-5.5,0-10-4.5-10-10s4.5-10,10-10s10,4.5,10,10S114.1,97.9,108.6,97.9z"/>
<path d="M33.2,74.1c-7.6,0-13.8,6.2-13.8,13.8s6.2,13.8,13.8,13.8S47,95.6,47,87.9C47,80.3,40.8,74.1,33.2,74.1z M33.2,97.9
	c-5.5,0-10-4.5-10-10s4.5-10,10-10s10,4.5,10,10S38.7,97.9,33.2,97.9z"/>
</svg>
