<?xml version="1.0" encoding="utf-8"?>
<!-- Generator: Adobe Illustrator 24.2.3, SVG Export Plug-In . SVG Version: 6.00 Build 0)  -->
<svg version="1.1" id="Layer_1" xmlns="http://www.w3.org/2000/svg" xmlns:xlink="http://www.w3.org/1999/xlink" x="0px" y="0px"
	 viewBox="0 0 157.75 52.94" style="enable-background:new 0 0 157.75 52.94;" xml:space="preserve">
<style type="text/css">
	.st0{fill:#1C9AD6;}
	.st1{fill:url(#XMLID_2_);}
	.st2{fill:url(#XMLID_3_);}
	.st3{fill:url(#XMLID_4_);}
	.st4{fill:#FFFFFF;}
</style>
<g id="XMLID_50_">
	<g id="XMLID_213_">
		<path id="XMLID_240_" class="st0" d="M34.9,11.75l0.03-4.37H28l-0.08,14.73C28.47,17.66,31.15,13.86,34.9,11.75z"/>
		<path id="XMLID_237_" class="st0" d="M20.84,39.67c-0.03,0-0.06,0.01-0.1,0.01c-3.46,0-6.32-2.54-6.84-5.86
			C14.6,37.1,17.42,39.63,20.84,39.67z"/>
		<path id="XMLID_233_" class="st0" d="M34.83,29.44l-0.01,3.3c0,1.57-0.26,3.08-0.74,4.48c0.48-1.4,0.74-2.91,0.74-4.49
			L34.83,29.44z"/>
		<path id="XMLID_227_" class="st0" d="M20.86,46.62c3.83-0.01,7.31-1.53,9.84-4.02c-2.51,2.48-5.95,4.02-9.76,4.02
			C20.92,46.62,20.89,46.62,20.86,46.62z"/>
		<path id="XMLID_222_" class="st0" d="M31.5,41.74c-0.25,0.3-0.52,0.59-0.8,0.86C30.98,42.33,31.25,42.04,31.5,41.74z"/>
		<linearGradient id="XMLID_2_" gradientUnits="userSpaceOnUse" x1="11.5173" y1="44.1732" x2="53.5429" y2="19.9097">
			<stop  offset="0.1989" style="stop-color:#1C9AD6"/>
			<stop  offset="0.2979" style="stop-color:#6189AC"/>
			<stop  offset="0.559" style="stop-color:#9B5F5D"/>
			<stop  offset="0.7392" style="stop-color:#B33832"/>
			<stop  offset="0.8226" style="stop-color:#BA2026"/>
		</linearGradient>
		<path id="XMLID_218_" class="st1" d="M55.55,27.12v19.51h-6.94V27.12c0-3.83-3.1-6.94-6.94-6.94c-3.83,0-6.94,3.11-6.82,6.95
			l-0.02,1.72l0,0.08l0,0.51l-0.02,3.3c0,1.58-0.26,3.09-0.74,4.49c-0.04,0.11-0.07,0.21-0.11,0.32c-0.08,0.21-0.16,0.42-0.25,0.63
			c-0.03,0.06-0.06,0.13-0.09,0.19c-0.06,0.14-0.12,0.28-0.19,0.41c-0.04,0.09-0.09,0.18-0.14,0.27c-0.06,0.11-0.11,0.22-0.17,0.33
			c-0.05,0.09-0.1,0.18-0.15,0.26c-0.06,0.11-0.12,0.21-0.19,0.32c-0.05,0.07-0.09,0.14-0.14,0.21c-0.08,0.12-0.15,0.24-0.23,0.36
			c-0.03,0.04-0.06,0.08-0.09,0.13c-0.1,0.15-0.2,0.29-0.31,0.43C32.01,41.11,32,41.12,32,41.13c-0.16,0.21-0.32,0.41-0.5,0.61
			c-0.25,0.3-0.52,0.59-0.8,0.86c-2.53,2.49-6.01,4.01-9.84,4.02c-7.62-0.05-13.79-6.24-13.79-13.87V18.87l6.68,0.02v13.88
			c0.02,0.36,0.08,0.71,0.16,1.06c0.52,3.32,3.38,5.86,6.84,5.86c0.04,0,0.07-0.01,0.1-0.01c0.04,0,0.07,0.01,0.1,0.01
			c3.84,0,6.94-3.11,6.94-6.94l0.04-7.37c0.56-4.46,3.23-8.26,6.98-10.36c2-1.13,4.32-1.77,6.78-1.77
			C49.34,13.24,55.55,19.45,55.55,27.12z"/>
		<linearGradient id="XMLID_3_" gradientUnits="userSpaceOnUse" x1="5.7814" y1="34.5696" x2="47.9453" y2="10.2262">
			<stop  offset="0.1989" style="stop-color:#1C9AD6"/>
			<stop  offset="0.2979" style="stop-color:#6189AC"/>
			<stop  offset="0.559" style="stop-color:#9B5F5D"/>
			<stop  offset="0.7392" style="stop-color:#B33832"/>
			<stop  offset="0.8226" style="stop-color:#BA2026"/>
		</linearGradient>
		<path id="XMLID_216_" class="st2" d="M20.86,46.62c-0.04,0-0.08,0-0.12,0c-7.66-0.05-13.87-6.21-13.87-13.88L6.79,13.23h6.94
			l0.08,19.51c0,0.37,0.04,0.73,0.1,1.08c-0.07-0.35-0.13-0.7-0.16-1.06V18.89l-6.68-0.02v13.88C7.07,40.38,13.24,46.57,20.86,46.62
			z"/>
		<linearGradient id="XMLID_4_" gradientUnits="userSpaceOnUse" x1="9.7908" y1="41.5179" x2="51.9629" y2="17.1699">
			<stop  offset="0.1989" style="stop-color:#1C9AD6"/>
			<stop  offset="0.2979" style="stop-color:#6189AC"/>
			<stop  offset="0.559" style="stop-color:#9B5F5D"/>
			<stop  offset="0.7392" style="stop-color:#B33832"/>
			<stop  offset="0.8226" style="stop-color:#BA2026"/>
		</linearGradient>
		<path id="XMLID_215_" class="st3" d="M27.92,25.38l-0.04,7.37c0,3.83-3.1,6.94-6.94,6.94c-0.03,0-0.06-0.01-0.1-0.01
			c3.79-0.05,6.84-3.13,6.84-6.93l0.11-5.63h0.01C27.8,26.53,27.84,25.95,27.92,25.38z"/>
	</g>
	<path id="XMLID_191_" class="st4" d="M59.07,23.59V12.98h4.87v10.52c0,1.69,1.09,2.78,2.68,2.78s2.68-1.09,2.68-2.78V12.98h4.87
		v10.61c0,4.26-3.14,7.13-7.56,7.13C62.21,30.73,59.07,27.85,59.07,23.59z"/>
	<path id="XMLID_186_" class="st4" d="M86.03,24.99H84.3v5.3h-4.77V12.98h7.5c3.73,0,6.44,2.51,6.44,6.13
		c0,2.12-1.04,3.86-2.75,4.89l3.44,6.29h-5.32L86.03,24.99z M84.3,20.98h2.18c1.33,0,2.1-0.8,2.1-1.88s-0.77-1.87-2.1-1.87H84.3
		V20.98z"/>
	<path id="XMLID_149_" class="st4" d="M109.37,21.15c1.63,0.77,2.65,2.32,2.65,4.21c0,2.8-2.42,4.93-5.61,4.93h-7.98V12.98h7.82
		c3.07,0,5.31,1.87,5.31,4.43C111.56,18.96,110.69,20.35,109.37,21.15L109.37,21.15z M107.31,24.79c0-0.92-0.68-1.57-1.71-1.57
		h-2.59v3.15h2.59C106.63,26.37,107.31,25.73,107.31,24.79z M107.03,18.2c0-0.9-0.61-1.51-1.61-1.51h-2.41v3.01h2.41
		C106.42,19.71,107.03,19.1,107.03,18.2L107.03,18.2z"/>
	<path id="XMLID_143_" class="st4" d="M126.74,27.48h-6.14l-0.96,2.81h-5.11l6.8-17.31H126l6.95,17.31h-5.25L126.74,27.48z
		 M123.66,18.38l-1.9,5.36h3.81L123.66,18.38z"/>
	<path id="XMLID_109_" class="st4" d="M152.23,12.98v17.31h-3.94l-6.88-9.39v9.39h-4.62V12.98h4.17l6.65,9.08v-9.08H152.23z"/>
	<path id="XMLID_105_" class="st4" d="M68.41,38.71v-5.25h1.44V46.4h-1.44v-6.35h-6.62v6.35h-1.44V33.46h1.44v5.25H68.41z"/>
	<path id="XMLID_100_" class="st4" d="M86.67,39.95c0,3.72-3.05,6.68-6.74,6.68c-3.69,0-6.74-2.95-6.74-6.68
		c0-3.71,3.05-6.71,6.74-6.71C83.62,33.24,86.67,36.24,86.67,39.95z M74.62,39.93c0,2.92,2.37,5.35,5.3,5.35s5.3-2.44,5.3-5.35
		c0-2.93-2.33-5.35-5.3-5.35S74.62,36.99,74.62,39.93z"/>
	<path id="XMLID_88_" class="st4" d="M93.37,46.4h-1.44V34.8H88.8v-1.34h7.72v1.34h-3.16V46.4z"/>
	<path id="XMLID_80_" class="st4" d="M105.18,35.98c-0.51-0.89-1.13-1.41-2.23-1.41c-1.15,0-2.14,0.82-2.14,2.01
		c0,1.12,1.15,1.63,2.02,2.03l0.86,0.38c1.68,0.74,3.11,1.58,3.11,3.64c0,2.27-1.82,4-4.07,4c-2.08,0-3.62-1.34-4.03-3.35l1.41-0.39
		c0.19,1.32,1.2,2.4,2.59,2.4c1.39,0,2.66-1.06,2.66-2.52c0-1.51-1.18-2.03-2.39-2.57l-0.79-0.34c-1.51-0.69-2.81-1.46-2.81-3.31
		c0-2.01,1.7-3.29,3.62-3.29c1.44,0,2.66,0.74,3.35,2.01L105.18,35.98z"/>
	<path id="XMLID_58_" class="st4" d="M111.65,46.4h-1.44V33.46h2.13c1.12,0,2.27,0.03,3.21,0.69c0.96,0.67,1.46,1.8,1.46,2.95
		c0,1.05-0.43,2.11-1.24,2.78c-0.88,0.72-1.99,0.86-3.07,0.86h-1.05V46.4z M111.65,39.4h0.96c1.6,0,2.95-0.48,2.95-2.33
		c0-2.11-1.7-2.27-3.38-2.27h-0.53V39.4z"/>
	<path id="XMLID_55_" class="st4" d="M132.99,39.95c0,3.72-3.05,6.68-6.74,6.68c-3.69,0-6.74-2.95-6.74-6.68
		c0-3.71,3.05-6.71,6.74-6.71C129.93,33.24,132.99,36.24,132.99,39.95z M120.94,39.93c0,2.92,2.37,5.35,5.3,5.35s5.3-2.44,5.3-5.35
		c0-2.93-2.33-5.35-5.3-5.35C123.27,34.57,120.94,36.99,120.94,39.93z"/>
	<path id="XMLID_53_" class="st4" d="M139.68,46.4h-1.44V34.8h-3.12v-1.34h7.72v1.34h-3.16V46.4z"/>
	<path id="XMLID_51_" class="st4" d="M151.49,35.98c-0.51-0.89-1.13-1.41-2.23-1.41c-1.15,0-2.14,0.82-2.14,2.01
		c0,1.12,1.15,1.63,2.02,2.03l0.86,0.38c1.68,0.74,3.11,1.58,3.11,3.64c0,2.27-1.82,4-4.07,4c-2.08,0-3.62-1.34-4.03-3.35l1.41-0.39
		c0.19,1.32,1.2,2.4,2.59,2.4c1.39,0,2.66-1.06,2.66-2.52c0-1.51-1.18-2.03-2.39-2.57l-0.79-0.34c-1.51-0.69-2.81-1.46-2.81-3.31
		c0-2.01,1.7-3.29,3.62-3.29c1.44,0,2.66,0.74,3.35,2.01L151.49,35.98z"/>
</g>
</svg>
