<svg xmlns="http://www.w3.org/2000/svg" xmlns:xlink="http://www.w3.org/1999/xlink" viewBox="0 0 350 130.45"><defs><style>.cls-1{fill:#fff;}.cls-2{stroke:#bd1622;fill:url(#Degradado_sin_nombre_15);}.cls-2,.cls-3{stroke-miterlimit:10;stroke-width:0.37px;}.cls-3{stroke:#4687c7;fill:url(#Degradado_sin_nombre_18);}.cls-4{fill:#4687c7;}.cls-5{fill:url(#Degradado_sin_nombre_7);}</style><linearGradient id="Degradado_sin_nombre_15" x1="140.68" y1="117.75" x2="146.66" y2="117.75" gradientUnits="userSpaceOnUse"><stop offset="0" stop-color="#bd1622"/><stop offset="1" stop-color="#bd1622"/></linearGradient><linearGradient id="Degradado_sin_nombre_18" x1="281.79" y1="117.75" x2="287.76" y2="117.75" gradientUnits="userSpaceOnUse"><stop offset="0.22" stop-color="#4687c7"/><stop offset="0.28" stop-color="#4687c7"/></linearGradient><linearGradient id="Degradado_sin_nombre_7" x1="10.57" y1="84.06" x2="109.28" y2="27.06" gradientUnits="userSpaceOnUse"><stop offset="0.26" stop-color="#4687c7"/><stop offset="0.33" stop-color="#4e7fbb"/><stop offset="0.45" stop-color="#656a9c"/><stop offset="0.62" stop-color="#89486a"/><stop offset="0.81" stop-color="#ba1826"/><stop offset="0.82" stop-color="#bd1622"/></linearGradient></defs><g id="Capa_2" data-name="Capa 2"><path class="cls-1" d="M13.65,123.92h-1V110.5H16c3.35,0,5.41,1.2,5.41,4.18S19,119.1,15.9,119.1a18.61,18.61,0,0,1-2.25-.17Zm0-5.91a18.29,18.29,0,0,0,2.25.17c2.56,0,4.48-1.09,4.48-3.53s-1.65-3.23-4.46-3.23H13.65Z"/><path class="cls-1" d="M27,123.92H26V110.5h3.23c3.15,0,5.1,1.15,5.1,4a3.75,3.75,0,0,1-2.6,3.76l3.48,5.66L34,124l-3.32-5.45a9.06,9.06,0,0,1-1.59.13c-.76,0-1.55-.09-2.18-.15Zm0-6.37a20.42,20.42,0,0,0,2.16.17c2.43,0,4.19-1,4.19-3.3s-1.53-3-4.19-3H27Z"/><path class="cls-1" d="M39.85,110.5H48l-.07.92H40.84v5.42H47l-.08.92h-6.1V123H48l-.07.92h-8Z"/><path class="cls-1" d="M63.26,117.15c0,4.8-2.63,7-6.32,7a20.46,20.46,0,0,1-4.19-.44V110.5h4.49C60.89,110.5,63.26,112.39,63.26,117.15Zm-9.51-5.73V122.9a19,19,0,0,0,3.25.29c3,0,5.27-1.87,5.27-6s-2-5.73-5.05-5.73Z"/><path class="cls-1" d="M69.42,110.5v13.42h-1V110.5Z"/><path class="cls-1" d="M75.57,117.21c0,4.41,2.28,6,4.91,6a9.26,9.26,0,0,0,3.41-.71l.21.92a10,10,0,0,1-3.62.71c-3.17,0-5.9-1.82-5.9-6.9s2.73-6.9,5.9-6.9a10,10,0,0,1,3.62.71l-.21.91a9.24,9.24,0,0,0-3.41-.7C77.85,111.23,75.57,112.79,75.57,117.21Z"/><path class="cls-1" d="M87.54,111.42l.07-.92H97.82l-.08.92H93.17v12.5h-1v-12.5Z"/><path class="cls-1" d="M102.83,110.5v13.42h-1V110.5Z"/><path class="cls-1" d="M109.17,123.92h-1V110.54l1-.08,7.65,11.72V110.5h1v13.38l-1,.08-7.65-11.72Z"/><path class="cls-1" d="M124,117.21c0,4.26,2.06,6,5.08,6a8.92,8.92,0,0,0,3.15-.59v-4.17h-3.8l.08-.92h4.72v5.76a11.51,11.51,0,0,1-4.23.84c-3.46,0-6-1.91-6-6.9s2.73-6.9,6.1-6.9a10,10,0,0,1,3.61.71l-.21.91a9.48,9.48,0,0,0-3.4-.7C126.32,111.23,124,112.79,124,117.21Z"/><path class="cls-1" d="M154.75,117.21c0,4.41,2.28,6,4.92,6a9.25,9.25,0,0,0,3.4-.71l.21.92a10,10,0,0,1-3.61.71c-3.18,0-5.91-1.82-5.91-6.9s2.73-6.9,5.91-6.9a10,10,0,0,1,3.61.71l-.21.91a9.23,9.23,0,0,0-3.4-.7C157,111.23,154.75,112.79,154.75,117.21Z"/><path class="cls-1" d="M173.81,110.31c3.5,0,5.94,1.81,5.94,6.9s-2.44,6.9-5.94,6.9-5.94-1.84-5.94-6.9S170.31,110.31,173.81,110.31Zm0,12.88c2.91,0,4.95-1.59,4.95-6s-2-6-4.95-6-4.95,1.56-4.95,6S170.91,123.19,173.81,123.19Z"/><path class="cls-1" d="M185.91,123.92h-1V110.54l1-.08,7.64,11.72V110.5h1v13.38l-1,.08-7.64-11.72Z"/><path class="cls-1" d="M198.56,111.42l.08-.92h10.2l-.07.92H204.2v12.5h-1v-12.5Z"/><path class="cls-1" d="M212.32,120.3l-1.3,3.62h-1l4.87-13.38,1.3-.08,4.92,13.46H220l-1.3-3.62Zm3.19-8.88-2.86,8h5.73Z"/><path class="cls-1" d="M226.27,117.21c0,4.26,2.07,6,5.09,6a8.92,8.92,0,0,0,3.15-.59v-4.17h-3.8l.08-.92h4.72v5.76a11.51,11.51,0,0,1-4.23.84c-3.46,0-6-1.91-6-6.9s2.73-6.9,6.1-6.9A10,10,0,0,1,235,111l-.21.91a9.48,9.48,0,0,0-3.4-.7C228.63,111.23,226.27,112.79,226.27,117.21Z"/><path class="cls-1" d="M241.85,110.5v13.42h-1V110.5Z"/><path class="cls-1" d="M253,110.31c3.49,0,5.94,1.81,5.94,6.9s-2.45,6.9-5.94,6.9-6-1.84-6-6.9S249.46,110.31,253,110.31Zm0,12.88c2.9,0,5-1.59,5-6s-2.05-6-5-6-5,1.56-5,6S250.05,123.19,253,123.19Z"/><path class="cls-1" d="M265.05,123.92h-1V110.54l1-.08,7.65,11.72V110.5h1v13.38l-1,.08-7.65-11.72Z"/><path class="cls-1" d="M295.44,123.92h-1V110.5h3.23c3.15,0,5.1,1.15,5.1,4a3.75,3.75,0,0,1-2.6,3.76l3.48,5.66-1.13.08-3.32-5.45a9,9,0,0,1-1.59.13c-.76,0-1.55-.09-2.18-.15Zm0-6.37a20.64,20.64,0,0,0,2.16.17c2.43,0,4.19-1,4.19-3.3s-1.53-3-4.19-3h-2.16Z"/><path class="cls-1" d="M309.34,110.5v13.42h-1V110.5Z"/><path class="cls-1" d="M315,122.41a8.66,8.66,0,0,0,3.46.78c1.79,0,3.34-.73,3.34-2.69,0-3.14-7.26-2.8-7.26-6.83,0-2.35,1.93-3.36,4.2-3.36a9,9,0,0,1,3.61.78l-.21.92a7.73,7.73,0,0,0-3.4-.8c-1.72,0-3.21.68-3.21,2.52,0,3.13,7.26,2.77,7.26,6.82,0,2.51-2,3.56-4.37,3.56a9.23,9.23,0,0,1-3.63-.79Z"/><path class="cls-1" d="M328.72,117.51v6.41h-1V110.5h1v6.4l6.44-6.44,1.24.08-6.65,6.61,6.73,6.73-1.34.08Z"/><circle class="cls-2" cx="143.67" cy="117.75" r="2.99"/><circle class="cls-3" cx="284.78" cy="117.75" r="2.99"/><path class="cls-4" d="M68.42,14.86l.07-10.25H52.2L52,37.55C53.33,27.08,59.6,19.81,68.42,14.86Z"/><path class="cls-5" d="M116.88,49V94.77H100.57V49A16.29,16.29,0,0,0,84.28,32.66,15.9,15.9,0,0,0,68.26,49l0,4v1.39l0,7.76a32.36,32.36,0,0,1-1.73,10.54c-.08.26-.17.51-.26.76-.19.5-.38,1-.59,1.48l-.21.46c-.15.32-.29.65-.45,1s-.21.42-.32.63-.25.52-.4.77-.24.42-.35.62l-.44.76-.32.49c-.18.29-.36.58-.55.85-.07.1-.15.2-.21.3-.24.34-.48.68-.73,1l0,0c-.38.49-.76,1-1.17,1.44-.6.71-1.23,1.39-1.89,2A32.58,32.58,0,0,1,3,62.18V16.34l15.68.05V62.23A17.06,17.06,0,0,0,19,64.71,16.27,16.27,0,0,0,35.11,78.47l.23,0,.23,0a16.29,16.29,0,0,0,16.3-16.29L52,44.86A32.59,32.59,0,0,1,116.88,49Z"/><path class="cls-1" d="M125.2,41.21V16.28h11.44V41c0,4,2.56,6.54,6.3,6.54S149.25,45,149.25,41V16.28h11.44V41.21c0,10-7.38,16.75-17.75,16.75S125.2,51.21,125.2,41.21Z"/><path class="cls-1" d="M188.53,44.5h-4.06V56.94h-11.2V16.28h17.62c8.76,0,15.12,5.89,15.12,14.39a13,13,0,0,1-6.46,11.48l8.08,14.79H195.12Zm-4.06-9.44h5.11c3.13,0,4.94-1.88,4.94-4.43s-1.81-4.4-4.94-4.4h-5.11Z"/><path class="cls-1" d="M243.35,35.47a10.68,10.68,0,0,1,6.23,9.89c0,6.59-5.68,11.58-13.19,11.58H217.65V16.28H236c7.21,0,12.47,4.4,12.47,10.4a10.36,10.36,0,0,1-5.14,8.79ZM238.5,44c0-2.16-1.58-3.68-4-3.68h-6.08v7.39h6.08C236.92,47.74,238.5,46.22,238.5,44Zm-.64-15.49A3.44,3.44,0,0,0,234.07,25h-5.66v7.08h5.66a3.44,3.44,0,0,0,3.79-3.54Z"/><path class="cls-1" d="M284.15,50.33H269.74l-2.25,6.61h-12l16-40.66H282.4l16.32,40.66H286.39ZM276.92,29l-4.45,12.6h8.95Z"/><path class="cls-1" d="M344,16.28V56.94h-9.26L318.62,34.87V56.94H307.76V16.28h9.8l15.62,21.33V16.28Z"/><path class="cls-1" d="M147.13,76.71V64.38h3.38V94.77h-3.38V79.86H131.57V94.77h-3.39V64.38h3.39V76.71Z"/><path class="cls-1" d="M190,79.62a15.84,15.84,0,1,1-15.84-15.76A15.76,15.76,0,0,1,190,79.62Zm-28.29,0A12.46,12.46,0,1,0,174.18,67,12.56,12.56,0,0,0,161.73,79.58Z"/><path class="cls-1" d="M205.75,94.77h-3.38V67.52H195V64.38h18.14v3.14h-7.42Z"/><path class="cls-1" d="M233.5,70.31c-1.21-2.1-2.66-3.31-5.24-3.31a4.83,4.83,0,0,0-5,4.72c0,2.62,2.7,3.83,4.75,4.75l2,.89c3.95,1.73,7.3,3.71,7.3,8.55a9.6,9.6,0,0,1-19,1.53l3.31-.93a6.26,6.26,0,0,0,6.08,5.64,6.11,6.11,0,0,0,6.25-5.92c0-3.55-2.78-4.76-5.6-6l-1.86-.8c-3.54-1.62-6.61-3.43-6.61-7.78,0-4.72,4-7.74,8.51-7.74a8.72,8.72,0,0,1,7.86,4.71Z"/><path class="cls-1" d="M248.7,94.77h-3.38V64.38h5c2.62,0,5.32.08,7.53,1.61a8.38,8.38,0,0,1,3.43,6.94,8.57,8.57,0,0,1-2.9,6.53c-2.06,1.69-4.68,2-7.22,2H248.7Zm0-16.44H251c3.75,0,6.93-1.13,6.93-5.48,0-5-4-5.33-7.94-5.33H248.7Z"/><path class="cls-1" d="M298.82,79.62A15.84,15.84,0,1,1,283,63.86,15.77,15.77,0,0,1,298.82,79.62Zm-28.3,0A12.46,12.46,0,1,0,283,67,12.56,12.56,0,0,0,270.52,79.58Z"/><path class="cls-1" d="M314.55,94.77h-3.39V67.52h-7.33V64.38H322v3.14h-7.41Z"/><path class="cls-1" d="M342.29,70.31c-1.21-2.1-2.66-3.31-5.24-3.31a4.83,4.83,0,0,0-5,4.72c0,2.62,2.7,3.83,4.76,4.75l2,.89c4,1.73,7.3,3.71,7.3,8.55a9.6,9.6,0,0,1-19,1.53l3.31-.93a6.26,6.26,0,0,0,6.09,5.64,6.11,6.11,0,0,0,6.24-5.92c0-3.55-2.78-4.76-5.6-6l-1.85-.8c-3.55-1.62-6.61-3.43-6.61-7.78,0-4.72,4-7.74,8.5-7.74A8.71,8.71,0,0,1,345,68.57Z"/></g></svg>